<?xml version="1.0" standalone="no"?>
<!DOCTYPE svg PUBLIC "-//W3C//DTD SVG 20010904//EN"
 "http://www.w3.org/TR/2001/REC-SVG-20010904/DTD/svg10.dtd">
<svg version="1.0" xmlns="http://www.w3.org/2000/svg"
 width="1920.000000pt" height="1080.000000pt" viewBox="0 0 1920.000000 1080.000000"
 preserveAspectRatio="xMidYMid meet">
<metadata>
Created by potrace 1.16, written by Peter Selinger 2001-2019
</metadata>
<g transform="translate(0.000000,1080.000000) scale(0.100000,-0.100000)"
fill="#000000" stroke="none">
<path d="M0 7946 l0 -2854 93 -1 c108 -1 127 -4 160 -26 24 -15 28 -15 66 4
52 27 56 27 71 -9 14 -34 22 -37 40 -15 7 8 17 12 22 9 6 -4 7 2 3 16 -8 24 7
40 38 40 27 0 20 -20 -19 -57 -49 -48 -42 -68 21 -68 52 0 75 11 67 33 -2 7
12 30 32 50 43 42 47 89 10 107 -21 10 -21 12 -6 58 16 49 73 106 122 122 13
4 36 16 51 27 22 16 29 17 52 7 21 -9 30 -9 42 1 13 11 12 15 -5 37 -11 14
-20 30 -20 34 0 16 143 150 178 166 18 9 52 38 74 64 42 50 64 58 97 37 26
-16 46 -5 78 43 25 38 28 51 28 127 0 104 10 114 94 105 68 -7 67 -8 114 107
39 95 62 174 79 270 6 36 16 72 23 80 7 8 16 26 19 40 11 41 48 161 67 215 14
43 21 50 44 51 21 1 33 -8 54 -37 14 -21 31 -38 38 -39 15 0 24 -15 28 -43 1
-12 6 -30 10 -39 4 -11 3 -18 -4 -18 -8 0 -8 -6 1 -19 9 -15 9 -31 0 -71 -7
-28 -12 -70 -12 -92 0 -23 -7 -49 -15 -58 -8 -8 -21 -40 -29 -70 -8 -30 -25
-78 -37 -107 -21 -48 -21 -53 -6 -84 14 -29 14 -37 0 -70 -16 -42 -8 -70 27
-89 36 -19 80 31 80 91 0 10 8 25 17 34 16 16 18 16 35 -5 10 -12 18 -30 18
-40 0 -31 -76 -137 -103 -144 -14 -3 -49 -30 -79 -59 -30 -29 -84 -67 -121
-85 -72 -36 -123 -82 -165 -147 -14 -22 -56 -71 -94 -108 -37 -38 -68 -72 -68
-76 0 -4 -22 -20 -49 -35 -28 -15 -52 -34 -55 -44 -7 -20 -190 -201 -228 -225
-15 -9 -36 -17 -46 -17 -28 0 -52 -32 -52 -68 0 -39 16 -41 66 -7 64 43 100
48 249 31 165 -20 263 -20 305 -2 32 13 70 11 70 -4 0 -4 14 -10 31 -12 24 -4
41 3 82 36 29 22 56 46 60 53 13 20 104 64 145 69 20 2 52 9 70 15 19 6 48 8
65 5 35 -7 137 -56 137 -65 0 -3 11 -19 25 -35 14 -16 25 -32 25 -36 0 -12 49
-22 71 -15 10 4 19 13 19 21 0 20 23 17 53 -6 29 -23 62 -25 97 -5 18 9 29 10
38 3 9 -8 23 -7 50 1 38 13 77 12 100 -3 7 -4 32 -9 55 -11 23 -2 66 -8 95
-12 29 -5 54 -8 56 -5 8 7 -6 32 -18 32 -21 0 -106 87 -106 109 0 12 3 21 8
21 28 -2 106 -29 122 -43 22 -18 106 -24 95 -7 -3 6 1 10 9 10 9 0 16 -5 16
-11 0 -5 5 -7 11 -4 6 4 17 -2 25 -14 18 -25 41 -27 72 -5 12 8 22 12 22 8 0
-3 7 0 16 7 18 14 142 15 157 0 4 -4 41 -6 81 -3 48 3 76 1 80 -7 13 -20 50
-12 86 19 19 16 32 30 27 30 -4 0 0 16 8 37 14 33 14 38 -1 55 -22 24 -39 23
-66 -4 l-23 -23 -3 39 c-2 22 -9 48 -17 59 -19 28 -110 85 -169 106 -28 10
-112 43 -186 74 -74 30 -184 69 -245 87 -173 50 -270 83 -273 91 -2 4 -10 5
-19 2 -10 -4 -14 -2 -10 4 4 6 -7 9 -26 8 -35 -2 -88 13 -84 23 1 4 -1 7 -4 7
-4 0 -16 11 -27 25 -16 20 -28 24 -66 22 -36 -1 -48 2 -56 18 -9 17 -6 18 48
16 31 -1 66 -7 78 -14 15 -8 24 -8 31 -1 16 16 53 1 53 -22 0 -11 7 -22 15
-25 8 -4 12 -11 8 -18 -3 -6 -3 -8 1 -4 5 4 19 3 32 -3 21 -7 26 -5 34 16 6
17 20 26 45 31 38 7 117 -9 150 -30 11 -7 37 -16 59 -20 21 -4 46 -11 55 -16
45 -23 95 -41 154 -55 57 -13 168 -58 250 -101 15 -8 39 -21 55 -28 72 -38
250 -116 265 -116 9 0 31 -13 49 -28 89 -75 111 -89 260 -164 51 -25 108 -62
127 -82 20 -21 49 -38 67 -42 18 -3 48 -19 66 -35 18 -16 53 -42 78 -59 25
-16 60 -43 79 -60 18 -16 44 -30 57 -30 28 0 84 -29 102 -52 7 -10 20 -18 28
-18 9 0 35 -12 60 -26 34 -20 44 -23 44 -11 0 18 27 30 43 20 6 -4 23 -6 38
-5 31 2 46 -23 28 -45 -9 -10 -9 -19 1 -38 7 -13 17 -22 22 -19 4 3 8 -2 8
-10 0 -28 72 -86 107 -86 17 0 38 -7 47 -15 21 -21 53 -19 66 5 9 16 15 18 30
10 28 -15 72 -12 98 6 22 15 24 15 29 -5 7 -28 21 -27 45 4 26 33 66 32 109
-2 28 -23 33 -34 31 -60 -4 -36 15 -45 40 -20 20 21 58 28 58 11 0 -8 5 -14
11 -14 6 0 9 9 6 19 -6 23 15 35 32 18 17 -17 13 -37 -6 -38 -10 0 -13 -3 -6
-5 7 -3 21 -1 32 5 15 8 23 7 35 -4 21 -21 38 -19 80 10 41 28 45 29 66 15 12
-7 12 -12 -4 -29 -17 -19 -17 -20 6 -34 22 -14 94 -32 112 -28 13 3 47 -31 57
-56 13 -34 44 -47 65 -26 16 16 19 15 54 -25 21 -23 41 -42 45 -42 4 0 18 -9
32 -20 14 -11 32 -20 40 -20 9 0 38 -15 66 -33 195 -124 245 -157 267 -179 14
-14 39 -32 55 -40 17 -9 39 -26 49 -37 11 -12 47 -35 80 -51 34 -16 75 -42 91
-58 36 -35 135 -95 143 -87 3 3 -13 22 -36 43 -24 20 -66 58 -95 83 -115 101
-291 238 -365 284 -52 32 -229 172 -234 184 -2 4 -16 14 -33 22 -17 8 -38 30
-48 51 -16 33 -17 40 -4 52 12 12 18 12 45 -1 18 -8 29 -19 27 -23 -6 -10 17
-17 56 -18 14 -1 56 -18 95 -38 38 -20 105 -56 149 -79 44 -23 109 -57 145
-76 93 -50 196 -104 259 -134 30 -14 69 -39 88 -55 19 -17 41 -30 50 -30 30 0
-11 43 -55 58 -23 7 -42 18 -42 23 0 5 -7 9 -15 9 -8 0 -15 4 -15 9 0 5 -55
42 -122 82 -68 40 -139 82 -158 93 -66 40 -75 45 -106 59 -17 8 -34 20 -38 25
-3 6 -30 22 -59 35 -28 13 -87 49 -131 80 -43 32 -83 57 -88 57 -13 0 -165 90
-358 212 -30 19 -116 69 -190 111 -143 80 -183 104 -382 231 -151 97 -301 181
-359 201 -76 27 -113 46 -149 80 -19 18 -51 35 -70 39 -19 3 -73 28 -120 56
-47 28 -101 55 -120 61 -19 7 -82 35 -140 64 -58 29 -116 56 -130 60 -14 4
-61 23 -105 42 -44 19 -122 50 -172 69 -51 18 -114 45 -141 58 -43 22 -144 62
-274 110 -26 10 -50 22 -53 27 -4 5 -16 9 -28 9 -12 0 -83 21 -157 46 -285 98
-331 112 -372 119 -24 3 -63 12 -88 20 -85 26 -165 47 -210 54 -25 5 -80 18
-123 30 -43 12 -82 19 -86 17 -4 -3 -62 6 -127 19 -166 33 -204 52 -150 76 17
8 38 8 77 -1 30 -7 74 -16 99 -20 25 -4 72 -15 105 -25 33 -9 76 -20 95 -24
19 -4 44 -12 55 -18 11 -5 30 -15 42 -21 12 -6 46 -12 75 -13 29 -1 79 -10
111 -21 32 -11 68 -17 81 -14 12 3 31 -1 43 -9 18 -12 77 -25 183 -39 136 -17
190 -29 229 -47 24 -11 67 -22 97 -24 29 -2 63 -9 75 -15 17 -10 20 -9 13 2
-6 11 -5 11 8 0 12 -10 18 -10 23 -1 6 8 10 8 15 -2 7 -10 12 -10 23 -1 24 20
74 11 86 -15 6 -14 7 -25 1 -28 -22 -13 15 -43 59 -49 25 -3 71 -18 101 -32
30 -15 72 -27 94 -29 21 -1 41 -7 45 -13 3 -5 30 -13 60 -17 30 -4 70 -14 89
-22 46 -19 67 -11 52 19 -11 21 -10 21 8 -2 l20 -24 209 4 c270 6 816 5 916
-1 43 -3 80 -2 83 3 7 11 44 10 44 0 0 -5 88 -9 195 -10 136 -1 194 2 189 9
-4 7 1 9 12 7 11 -2 18 -10 16 -16 -1 -7 -1 -12 0 -12 2 -1 48 -3 103 -6 55
-3 147 -12 205 -20 58 -9 120 -17 138 -19 18 -2 38 -7 44 -11 6 -4 31 -9 57
-11 l45 -4 -23 22 c-26 24 -16 39 27 39 13 0 21 4 18 8 -3 5 8 6 25 4 23 -3
28 -8 24 -22 -3 -10 -1 -21 5 -25 5 -3 11 -16 11 -28 1 -12 6 1 11 30 7 41 13
51 25 46 12 -5 14 -1 8 18 -7 23 -7 23 8 4 9 -11 19 -17 23 -13 7 8 44 -34 44
-51 0 -6 11 -18 26 -27 16 -11 23 -23 19 -33 -3 -8 -3 -12 1 -9 4 4 15 3 26
-3 11 -6 22 -8 25 -5 9 8 -18 37 -28 30 -16 -10 -9 6 11 26 12 12 18 25 15 30
-4 6 -1 10 4 10 6 0 11 9 11 21 0 11 5 17 10 14 6 -3 10 -2 10 4 0 5 -6 12
-12 14 -9 4 -8 6 2 6 20 1 39 -49 33 -83 -4 -20 0 -28 18 -35 20 -8 28 -5 47
17 16 18 26 23 29 15 2 -7 9 -13 14 -13 6 0 7 5 4 10 -3 6 0 10 7 10 7 0 2 6
-11 13 -33 17 -30 31 10 38 19 3 40 9 47 13 7 4 12 3 12 -3 0 -5 -6 -11 -12
-14 -7 -2 -1 -4 15 -4 21 0 25 2 17 12 -9 11 -7 12 9 8 13 -3 20 1 23 14 3 16
7 15 31 -11 30 -32 35 -48 12 -40 -8 4 -15 12 -15 19 0 8 -4 17 -10 20 -5 3
-10 -3 -10 -15 0 -13 9 -24 26 -30 14 -6 22 -14 19 -20 -3 -5 0 -7 8 -4 9 3
12 14 9 32 -5 27 -5 27 17 8 11 -11 21 -26 21 -35 0 -10 5 -7 14 9 12 22 11
27 -4 41 -16 14 -16 17 -3 35 15 18 15 18 9 -2 -5 -15 -1 -24 10 -28 13 -5 14
-3 6 7 -6 7 -7 18 -2 27 7 12 11 12 26 -1 16 -13 16 -12 4 8 -8 12 -18 19 -22
17 -4 -3 -8 -1 -8 5 0 15 16 22 35 15 13 -6 16 -15 12 -45 -4 -32 -1 -41 24
-63 16 -15 29 -32 29 -38 0 -7 7 -2 16 10 14 21 41 22 29 1 -4 -5 -1 -9 4 -9
20 0 11 39 -9 45 -27 9 -15 25 18 25 15 0 34 4 41 9 9 6 22 6 34 -1 15 -8 18
-7 15 4 -3 7 -11 13 -18 13 -7 0 -15 6 -18 14 -3 10 0 12 12 8 10 -4 15 -3 11
3 -3 6 -1 10 5 10 6 0 8 5 5 11 -4 6 -13 8 -21 5 -8 -3 -14 1 -14 9 0 8 -2 15
-4 15 -2 0 -12 3 -22 7 -12 4 -15 3 -10 -5 4 -7 3 -12 -2 -12 -5 0 -12 9 -15
20 -3 11 -18 25 -34 31 -15 6 -48 20 -73 30 -25 10 -67 24 -95 30 -27 7 -54
15 -60 19 -5 4 -35 13 -65 20 -30 7 -75 19 -100 26 -131 40 -520 86 -845 101
-77 3 -141 10 -143 14 -2 5 -12 3 -23 -4 -15 -9 -22 -8 -36 6 -33 33 -1 38
192 32 279 -8 654 -47 790 -81 33 -8 103 -23 155 -34 167 -34 245 -51 260 -57
8 -3 25 -5 36 -4 12 1 46 -9 75 -23 29 -14 62 -26 74 -26 12 0 45 -12 75 -26
40 -19 63 -24 90 -20 42 7 55 -1 38 -21 -17 -21 -1 -27 26 -9 28 17 40 21 32
8 -6 -10 62 -37 84 -34 11 2 9 -2 -4 -13 -19 -15 -19 -15 1 -15 12 0 24 8 26
18 3 12 5 13 6 2 0 -8 15 -21 31 -28 17 -8 27 -18 24 -24 -4 -7 2 -7 17 -2 27
8 35 8 67 -1 16 -6 22 -3 22 9 0 10 6 13 15 10 11 -5 15 1 15 25 0 25 6 34 26
41 14 6 31 7 37 3 6 -4 8 0 4 10 -3 10 -2 17 3 17 5 0 10 7 12 16 2 13 7 12
29 -8 28 -26 49 -26 49 -1 0 12 -3 13 -14 4 -10 -8 -16 -9 -21 -1 -9 14 4 32
17 24 6 -4 8 -1 6 7 -3 8 -11 13 -17 11 -6 -1 -11 3 -11 9 0 6 7 9 15 6 8 -4
17 -2 20 3 4 6 0 10 -8 10 -8 0 -18 7 -21 16 -9 24 -7 54 4 54 18 0 10 18 -10
23 -19 5 -26 -8 -21 -38 1 -5 -8 1 -21 14 -16 16 -19 25 -11 28 10 3 9 11 -3
34 -16 33 -10 57 10 40 7 -6 16 -8 19 -4 12 11 8 23 -8 23 -17 0 -20 16 -5 25
6 4 3 16 -10 32 -11 14 -20 36 -20 48 0 27 -26 53 -33 33 -2 -7 -8 -10 -12 -6
-4 4 -2 15 6 24 17 20 21 104 5 104 -6 0 -4 5 4 10 12 8 11 10 -7 10 -19 0
-23 6 -23 29 0 39 -10 62 -23 54 -6 -4 -8 0 -4 10 4 11 -1 18 -16 23 -14 4
-23 2 -26 -7 -3 -8 -10 24 -16 71 -5 47 -7 87 -2 88 12 6 8 32 -5 32 -10 0
-10 2 0 8 7 5 10 16 6 25 -4 10 -1 17 6 17 9 0 9 4 2 13 -6 6 -9 29 -8 50 3
32 0 37 -18 37 -15 0 -17 3 -8 9 10 6 8 10 -10 15 -22 7 -22 7 -3 16 19 8 18
9 -5 11 -14 1 -34 2 -45 3 -13 1 -21 9 -23 25 -3 21 0 23 22 19 22 -5 26 -2
26 19 0 31 18 65 31 58 5 -4 7 -10 4 -15 -8 -12 9 -20 23 -11 9 5 2 15 -22 32
-30 20 -36 30 -36 61 0 23 -6 40 -16 46 -13 7 -16 27 -16 103 0 165 1 181 14
177 16 -6 38 16 38 36 0 9 5 16 10 16 6 0 9 3 8 8 -4 12 26 52 39 52 9 0 13
22 14 73 1 49 3 62 8 42 5 -25 8 -27 14 -12 4 10 7 36 7 57 0 32 4 39 25 44
14 4 23 11 19 17 -3 6 -6 26 -6 45 0 19 -4 34 -9 34 -5 0 -9 5 -9 12 0 9 3 9
12 0 7 -7 20 -12 30 -12 16 0 17 3 7 21 -9 18 -8 24 5 31 9 5 16 14 16 21 0 7
-4 6 -11 -3 -8 -12 -9 -10 -7 10 2 14 9 26 16 26 25 3 27 5 12 14 -8 5 -10 10
-4 10 6 0 11 7 11 15 0 9 -6 14 -14 11 -7 -3 -13 -1 -13 4 0 6 6 10 13 10 12
0 17 17 21 67 0 11 4 19 7 17 4 -2 10 3 13 12 3 9 15 14 28 12 19 -2 24 2 26
27 2 16 12 37 23 46 10 9 20 27 20 40 1 17 3 19 6 7 2 -10 8 -18 13 -18 13 0
20 28 7 34 -7 2 -5 5 4 5 23 1 18 34 -8 65 -25 28 -15 36 12 10 14 -15 15 -14
11 9 -3 18 1 28 12 32 15 6 14 9 -6 25 -18 15 -20 23 -13 44 7 17 16 24 30 21
27 -5 37 25 11 32 -33 9 -23 23 18 23 30 1 34 3 20 11 -22 12 -23 29 -3 29 7
0 19 8 25 18 9 14 10 11 7 -15 -2 -18 0 -33 5 -33 4 0 8 7 8 15 0 8 5 15 11
15 5 0 8 4 5 8 -2 4 -1 14 4 22 8 13 12 12 25 -5 9 -11 14 -15 11 -8 -10 19 4
42 22 36 12 -5 14 -2 9 11 -4 10 -7 20 -7 23 0 2 -7 -3 -16 -11 -8 -9 -20 -16
-25 -16 -6 0 -3 8 7 17 16 16 15 18 -11 29 -19 8 -24 14 -15 19 9 6 9 9 -1 16
-10 6 -11 9 -1 9 6 0 12 10 12 21 0 16 -5 20 -20 16 -24 -6 -37 10 -21 26 17
17 61 16 61 0 0 -8 7 -13 16 -11 10 2 19 -3 22 -11 3 -10 0 -12 -11 -8 -9 3
-19 1 -23 -6 -4 -7 -4 -9 0 -5 12 10 46 -30 46 -55 0 -28 28 -71 31 -47 1 8 1
19 0 23 -1 4 3 16 9 27 8 15 6 20 -11 25 -17 6 -19 9 -8 17 11 7 11 11 2 15
-18 7 -16 18 5 39 15 16 15 17 0 11 -13 -4 -18 0 -20 21 -2 19 -8 26 -20 24
-10 -2 -18 2 -18 8 0 6 -7 18 -15 26 -51 52 30 123 89 79 25 -19 32 -101 10
-109 -17 -6 -10 -26 9 -26 8 0 8 3 -1 9 -11 7 -10 9 3 14 10 4 18 0 22 -11 10
-25 25 -32 46 -20 17 9 19 8 14 -11 -3 -11 -1 -24 4 -27 5 -3 9 2 9 11 0 9 5
13 10 10 6 -3 10 1 10 9 0 8 -4 18 -10 21 -17 10 -12 20 20 39 17 9 28 21 25
27 -3 5 1 6 9 3 18 -7 22 16 6 32 -7 7 -2 18 15 34 21 19 25 21 25 7 0 -9 6
-17 14 -17 8 0 22 -3 32 -7 14 -5 16 -3 11 10 -5 15 -3 16 12 7 14 -7 20 -6
25 5 7 18 -7 27 -31 19 -17 -5 -17 -5 0 6 14 9 15 15 7 33 -10 20 -10 20 3 5
10 -13 23 -16 52 -11 27 4 36 3 31 -5 -5 -8 1 -12 15 -12 18 0 19 2 9 15 -10
12 -10 15 1 15 23 -1 57 -34 62 -60 3 -18 5 -15 6 13 0 20 4 36 9 36 26 -4 43
5 61 36 12 21 28 35 40 35 11 0 22 6 24 13 3 7 6 5 6 -6 1 -16 3 -16 26 -1 23
15 25 15 25 0 0 -10 -5 -14 -10 -11 -6 3 -10 1 -10 -5 0 -21 25 -4 28 18 2 12
10 22 18 22 8 0 14 5 14 11 0 5 5 7 12 3 6 -4 26 -8 45 -10 29 -1 33 1 33 22
0 13 5 24 10 24 6 0 10 -6 10 -12 0 -10 2 -10 8 -1 4 7 18 11 30 8 16 -3 22 1
22 15 0 14 -5 18 -17 13 -11 -4 -14 -3 -9 5 10 16 32 15 49 -3 12 -11 17 -12
20 -2 4 8 8 9 14 1 4 -5 30 -11 58 -13 27 -2 53 -7 56 -13 4 -6 9 -5 12 3 4
10 6 9 6 -3 1 -25 77 -16 102 13 12 15 19 17 19 8 0 -9 13 -14 38 -15 20 -1
29 1 20 3 -21 5 -24 33 -4 33 15 0 29 27 21 40 -13 22 16 18 39 -5 17 -17 20
-25 11 -25 -8 0 -15 -4 -15 -9 0 -13 50 -43 63 -37 7 2 4 5 -6 5 -14 1 -17 9
-16 44 2 40 4 43 26 39 22 -4 25 -10 27 -62 1 -18 7 -26 24 -28 20 -3 27 6 23
31 0 4 3 7 9 7 5 0 10 -9 10 -20 0 -11 5 -20 10 -20 6 0 10 5 10 12 0 9 3 9
11 1 9 -9 16 -7 28 6 9 9 15 15 14 13 -1 -2 6 -13 16 -23 12 -13 28 -18 55
-16 20 2 39 0 42 -4 9 -14 95 -22 120 -10 23 10 29 5 25 -21 0 -5 7 -8 16 -8
10 0 29 -3 43 -6 18 -4 21 -3 11 4 -11 8 -10 11 5 14 10 2 30 2 42 0 18 -4 20
-7 10 -13 -10 -7 -10 -9 2 -9 13 0 13 -1 0 -10 -13 -9 -13 -10 0 -11 8 0 24
-3 35 -6 11 -3 40 -5 63 -4 36 1 45 -2 49 -19 3 -11 9 -20 13 -20 11 0 7 34
-5 42 -6 5 -5 8 3 8 7 0 11 4 8 9 -3 4 7 6 22 3 19 -4 22 -7 10 -10 -10 -2
-18 -8 -18 -13 0 -5 8 -9 18 -10 10 0 12 -3 5 -6 -17 -6 -17 -36 -1 -31 7 3
15 15 19 29 7 24 7 24 8 -3 1 -29 21 -40 21 -12 0 8 5 12 10 9 6 -3 10 -15 10
-26 0 -10 6 -19 13 -19 9 0 8 -3 -2 -9 -11 -7 -10 -11 7 -20 11 -6 27 -11 36
-11 8 0 16 -4 18 -8 3 -9 154 -101 170 -105 6 -1 20 -10 32 -20 11 -10 61 -51
110 -89 48 -39 109 -93 133 -120 25 -26 51 -48 57 -49 6 0 43 -41 81 -91 39
-49 82 -103 97 -120 24 -27 27 -28 37 -11 6 10 11 16 11 13 1 -3 3 -23 6 -45
2 -22 12 -55 21 -72 17 -32 33 -43 33 -23 0 6 -4 10 -10 10 -5 0 -10 4 -10 10
0 5 7 7 15 4 8 -4 15 -13 15 -21 0 -8 5 -11 10 -8 6 3 10 -1 10 -9 0 -14 18
-21 43 -17 4 0 7 -3 7 -9 0 -5 8 -10 18 -10 22 0 23 -30 1 -56 -12 -16 -12
-17 4 -11 14 5 17 1 17 -26 0 -22 3 -28 9 -18 7 11 10 11 15 0 5 -11 7 -11 12
-1 3 6 15 12 26 12 15 0 19 -5 15 -20 -3 -11 -2 -18 3 -15 12 8 24 -26 25 -75
4 -100 5 -111 14 -106 5 4 12 0 14 -6 3 -8 6 -6 6 5 1 9 -3 17 -9 17 -5 0 -10
5 -10 11 0 8 5 8 15 -1 20 -17 19 -41 -3 -47 -29 -7 -23 -76 9 -102 13 -11 19
-20 12 -21 -6 0 -14 6 -16 13 -3 7 -6 5 -6 -5 -1 -10 4 -18 10 -18 6 0 9 -7 5
-15 -3 -8 -2 -15 3 -15 5 0 7 -13 5 -30 -2 -16 0 -30 4 -30 4 0 8 -27 10 -61
2 -40 -1 -59 -8 -54 -13 8 -13 -8 1 -22 14 -14 13 -113 -1 -113 -9 0 -12 -88
-4 -113 3 -9 9 -15 14 -12 5 3 8 -4 7 -15 -1 -11 -7 -20 -14 -20 -7 0 -13 -4
-13 -10 0 -9 7 -11 50 -14 11 -1 14 -15 14 -61 -1 -33 1 -54 3 -47 3 6 9 9 15
6 5 -4 2 -14 -8 -25 -11 -12 -14 -27 -10 -44 6 -23 -1 -30 -26 -26 -16 2 -7
-18 9 -21 15 -3 14 -6 -7 -27 -14 -13 -20 -21 -14 -18 7 4 14 -2 17 -13 3 -10
1 -20 -5 -22 -5 -2 -12 -22 -15 -46 -5 -38 -8 -41 -29 -36 -18 5 -24 2 -24
-10 0 -19 16 -22 22 -4 3 8 9 4 17 -10 10 -19 9 -22 -5 -22 -16 0 -16 -1 -1
-18 18 -20 12 -38 -7 -23 -7 6 -19 4 -31 -6 -16 -13 -17 -15 -2 -10 17 6 21
-1 17 -36 -1 -15 3 -17 19 -12 12 4 21 2 21 -4 0 -6 -9 -11 -20 -11 -13 0 -20
-7 -20 -20 0 -31 1 -35 11 -32 5 1 9 -3 9 -9 0 -6 -9 -8 -20 -4 -21 7 -28 -10
-7 -18 7 -4 3 -8 -10 -12 -19 -6 -23 -15 -23 -46 0 -22 -4 -39 -10 -39 -5 0
-10 5 -10 10 0 6 -5 10 -11 10 -7 0 -8 -18 -5 -50 5 -40 2 -51 -12 -59 -16
-10 -16 -10 1 -11 9 0 17 -4 17 -10 0 -5 -4 -10 -9 -10 -5 0 -12 -12 -15 -26
-5 -19 -2 -30 11 -40 17 -13 17 -13 -1 -14 -13 0 -16 -5 -12 -16 9 -22 -14
-50 -25 -32 -6 9 -9 6 -9 -10 0 -13 4 -20 10 -17 6 3 10 1 10 -6 0 -6 -10 -10
-23 -7 -17 3 -23 0 -23 -13 0 -10 4 -16 7 -13 4 2 10 1 13 -4 2 -4 -16 -19
-41 -32 -25 -13 -40 -26 -32 -29 7 -2 15 1 17 7 7 23 19 12 20 -18 0 -16 -3
-30 -8 -30 -4 0 -10 -9 -13 -20 -3 -12 -11 -18 -19 -15 -10 4 -14 -1 -14 -17
1 -16 -4 -23 -17 -22 -14 2 -15 -1 -6 -12 9 -11 8 -15 -5 -20 -9 -3 -16 -12
-16 -20 0 -17 12 -18 27 -3 7 7 12 6 16 -5 5 -12 0 -16 -16 -17 -20 0 -21 -1
-3 -8 14 -5 16 -10 8 -15 -7 -4 -17 -4 -22 -1 -5 3 -10 -3 -10 -14 0 -12 -6
-21 -12 -21 -7 0 -5 -5 5 -11 15 -9 16 -13 5 -27 -11 -13 -10 -15 10 -10 29 8
29 -6 0 -20 -17 -8 -18 -11 -7 -11 9 -1 22 5 28 13 6 8 21 16 32 19 18 5 20 2
15 -20 -5 -16 -3 -22 4 -18 16 10 25 -26 9 -36 -12 -8 -12 -11 1 -19 22 -14
28 -12 35 10 4 11 9 18 13 16 4 -2 13 2 20 10 10 11 7 15 -20 22 -41 10 -59
63 -33 92 25 27 65 7 65 -32 0 -18 5 -28 14 -28 11 0 14 -10 11 -37 -4 -29 -3
-32 3 -13 8 24 8 24 14 4 4 -14 -1 -27 -14 -39 -11 -9 -17 -19 -13 -23 4 -4
10 -1 12 6 3 6 13 12 23 12 27 0 46 28 33 49 -8 13 -6 22 12 43 18 21 24 23
38 13 20 -14 22 -41 5 -51 -8 -5 -9 -2 -5 9 9 24 -14 33 -29 12 -12 -16 -11
-21 2 -36 11 -12 14 -25 9 -36 -9 -22 -13 -62 -5 -61 21 2 30 -5 30 -22 0 -11
4 -20 9 -20 5 0 11 -9 14 -20 3 -11 1 -20 -5 -20 -5 0 -6 -5 -3 -11 11 -17 32
21 27 47 -2 13 -11 24 -18 24 -8 0 -14 4 -14 9 0 5 -2 16 -6 24 -7 20 49 17
58 -3 11 -25 9 -105 -4 -118 -12 -12 -6 -12 79 4 18 4 30 10 27 15 -3 5 -11 7
-17 3 -7 -3 -4 1 6 9 18 15 24 33 8 22 -5 -3 -13 0 -17 6 -4 6 1 16 10 21 9 5
16 16 16 24 0 8 4 13 9 9 5 -3 7 -21 4 -40 -4 -27 -2 -35 9 -35 19 0 44 -28
34 -37 -4 -4 -11 -1 -16 7 -8 13 -10 13 -10 -1 0 -28 24 -41 56 -29 20 8 25
13 15 19 -7 4 -14 20 -15 34 -2 15 1 24 6 20 6 -3 7 7 3 26 -7 35 8 63 30 55
7 -3 16 -20 19 -37 7 -30 8 -31 21 -13 8 11 19 15 26 10 10 -6 9 -9 -3 -13
-15 -5 -14 -9 3 -30 17 -21 19 -21 20 -5 1 11 1 22 0 26 0 4 10 5 23 2 16 -3
26 2 34 19 8 17 11 18 11 5 1 -18 31 -26 31 -9 0 5 10 13 23 17 12 3 40 19 62
33 22 15 48 30 57 34 10 3 48 27 85 52 111 74 122 81 88 51 -44 -39 -154 -116
-166 -116 -6 0 -7 -5 -4 -10 8 -13 40 -4 75 20 14 9 41 22 61 29 20 6 60 29
89 51 53 39 94 53 84 27 -5 -15 42 -22 51 -7 3 6 -2 10 -12 10 -15 0 -16 2 -3
10 13 9 13 10 0 11 -9 0 -6 5 8 11 19 9 26 8 40 -7 12 -13 13 -16 2 -9 -13 7
-13 6 -1 -9 17 -21 31 -22 31 -2 0 17 18 19 39 6 12 -8 12 -12 2 -25 -7 -8
-10 -24 -6 -36 5 -14 2 -20 -9 -20 -9 0 -16 5 -16 11 0 8 -4 8 -14 -1 -8 -6
-13 -17 -10 -24 4 -11 -83 -61 -96 -54 -9 4 -89 -45 -85 -52 4 -7 -88 -50
-106 -50 -5 0 -20 -10 -34 -22 -14 -12 -38 -28 -53 -34 -25 -12 -26 -12 -4
-13 17 -1 22 -7 22 -26 0 -30 40 -57 41 -28 0 13 3 11 11 -7 6 -15 12 -20 15
-12 7 17 23 5 23 -19 0 -10 4 -19 9 -19 23 0 41 14 41 31 0 12 5 16 15 13 8
-3 24 1 37 10 l22 16 -23 0 c-14 0 -21 5 -18 13 2 6 0 22 -4 34 -10 26 5 40
25 24 17 -14 26 -4 26 31 0 15 5 28 10 28 6 0 10 -7 10 -15 0 -8 5 -15 11 -15
5 0 8 -4 5 -8 -3 -5 9 -6 27 -4 18 3 26 7 20 9 -17 6 -16 64 0 88 10 13 21 16
39 12 21 -6 27 -15 32 -51 6 -39 10 -44 31 -43 13 1 23 -2 22 -8 -1 -5 -7 -9
-14 -7 -6 1 -17 -8 -24 -20 -6 -13 -8 -20 -4 -16 4 4 14 0 22 -10 7 -9 13 -12
12 -7 -4 28 2 36 24 31 12 -3 17 -3 11 -1 -6 3 -9 17 -6 30 2 14 9 22 14 19 5
-3 7 -12 4 -19 -3 -8 2 -19 10 -25 10 -9 14 -9 14 -1 0 6 4 11 9 11 5 0 7 -10
4 -22 -4 -22 -4 -23 11 -4 22 27 42 28 43 2 1 -11 -1 -15 -4 -8 -6 17 -23 15
-23 -2 0 -16 34 -31 49 -22 5 4 12 -2 14 -11 4 -15 5 -15 6 -2 1 11 10 16 31
15 20 -1 29 -5 25 -13 -2 -7 3 -13 11 -13 8 0 13 -4 10 -9 -3 -5 3 -11 14 -14
14 -4 20 0 20 11 0 13 2 14 9 4 6 -11 12 -10 25 4 14 13 20 14 26 5 4 -7 10
-12 14 -12 3 1 6 -1 6 -4 -1 -12 27 -32 53 -39 33 -8 36 8 5 25 -22 12 -22 12
-3 20 17 6 17 8 3 8 -10 1 -18 7 -18 14 0 8 -4 7 -11 -3 -9 -13 -10 -13 -6 0
2 8 9 16 15 16 7 1 15 3 20 4 4 1 15 1 25 0 10 -1 17 4 16 12 -3 27 1 38 17
38 14 0 14 -3 4 -15 -9 -10 -9 -15 -1 -15 6 0 11 -4 11 -10 0 -5 -7 -10 -15
-10 -10 0 -13 -9 -10 -30 2 -18 -1 -30 -8 -31 -7 0 -3 -4 8 -8 26 -11 31 -6
15 14 -11 13 -8 15 15 15 27 0 29 -5 14 -45 -2 -5 1 -11 6 -13 6 -1 11 13 13
33 2 22 8 35 18 35 8 0 14 5 14 10 0 6 4 10 10 10 5 0 7 -7 3 -16 -5 -14 -3
-15 16 -4 19 10 25 9 37 -7 7 -10 14 -23 14 -30 0 -6 8 -14 18 -17 24 -8 104
-3 91 5 -6 3 3 11 20 17 28 10 31 9 31 -9 0 -10 6 -19 14 -19 8 0 21 -3 29 -6
8 -3 21 1 28 9 22 21 42 25 58 10 11 -12 15 -12 22 -1 7 10 9 10 9 1 0 -7 9
-13 20 -13 11 0 20 4 20 9 0 5 12 8 28 6 15 -2 30 -4 33 -4 3 -1 18 -12 32
-25 22 -20 26 -31 21 -55 -6 -27 -4 -31 15 -31 13 0 23 8 26 23 7 28 34 29 61
3 18 -18 19 -18 27 15 9 33 22 49 42 49 6 0 4 -4 -4 -9 -10 -7 -11 -13 -2 -27
9 -17 10 -17 11 -1 0 9 4 17 9 17 5 0 16 2 23 5 9 4 19 -4 26 -17 10 -20 11
-21 9 -3 -1 11 -8 27 -16 35 -19 19 4 27 27 8 15 -12 16 -11 3 5 -8 9 -12 18
-10 20 55 31 68 35 49 12 -9 -11 -9 -15 -1 -15 7 0 9 -5 6 -10 -4 -6 -11 -7
-17 -4 -6 4 -6 0 1 -13 6 -11 7 -24 3 -28 -4 -5 1 -5 11 -2 18 7 24 -8 7 -18
-12 -7 8 -32 27 -32 9 0 10 4 2 13 -7 8 -6 27 2 59 10 39 14 45 23 33 8 -11
18 -13 35 -6 13 4 26 7 28 5 8 -8 -10 -37 -23 -37 -8 0 -14 -4 -14 -10 0 -5 9
-10 21 -10 11 0 18 3 16 8 -2 4 2 21 9 37 7 17 13 24 14 16 0 -7 6 -11 15 -7
20 7 19 -1 -6 -32 -11 -15 -16 -28 -11 -30 6 -2 7 -13 4 -24 -5 -20 -4 -20 10
-7 10 8 13 18 7 23 -16 17 -10 29 11 23 15 -4 20 0 20 14 0 10 5 19 10 19 6 0
10 -5 10 -11 0 -5 4 -8 9 -4 5 3 12 1 16 -5 11 -18 25 0 25 34 0 19 7 39 15
46 11 9 15 9 15 1 0 -7 5 -9 10 -6 9 6 15 -16 11 -39 -1 -5 4 -4 13 3 12 10
15 9 19 -6 3 -10 5 -3 6 15 1 20 6 32 15 32 8 0 17 6 19 13 4 9 6 9 6 0 1 -7
8 -10 16 -7 8 4 15 1 15 -5 0 -6 -7 -11 -15 -11 -8 0 -14 -6 -12 -12 1 -7 -4
-12 -11 -10 -8 1 -11 -2 -7 -8 4 -6 17 -4 36 6 40 20 59 12 59 -25 0 -23 5
-30 22 -33 12 -2 23 -8 25 -14 2 -7 -6 -10 -22 -7 -21 5 -25 2 -25 -18 1 -21
2 -22 13 -9 7 9 20 14 30 12 18 -4 20 3 17 54 -1 18 3 35 9 39 6 3 11 1 11 -5
0 -6 5 -8 12 -4 8 5 9 2 5 -10 -4 -10 -2 -26 3 -37 12 -22 42 -26 34 -5 -8 21
12 28 52 17 38 -11 39 -5 2 13 -12 6 -24 18 -26 26 -5 13 -3 13 13 0 17 -14
18 -13 12 3 -4 11 -2 17 8 17 8 0 15 9 15 20 0 11 -4 20 -10 20 -14 0 -12 21
3 41 14 19 68 35 65 19 -2 -6 10 -18 25 -28 23 -14 29 -15 36 -3 5 8 11 9 15
3 3 -5 25 -9 49 -8 32 1 44 -3 43 -13 -1 -20 23 -26 30 -6 4 9 -1 21 -11 29
-15 11 -16 16 -6 32 9 13 11 14 7 3 -7 -25 37 -63 63 -54 18 6 20 3 15 -22 -4
-21 0 -31 15 -41 25 -15 28 -5 4 14 -17 13 -17 14 0 8 19 -7 24 12 5 19 -9 4
-7 6 3 6 9 1 21 -9 28 -21 11 -22 11 -22 6 5 -4 18 -1 27 7 27 7 0 24 3 38 6
18 4 21 3 11 -4 -20 -14 -6 -30 24 -26 21 2 25 -1 20 -17 -8 -23 -3 -24 35 -4
29 15 74 9 69 -10 -1 -9 46 -42 63 -44 15 -2 -6 39 -28 54 -28 18 -32 37 -6
33 9 -2 16 3 15 10 -4 16 14 16 21 0 5 -10 7 -10 12 0 12 26 21 10 14 -28 -6
-35 -5 -40 11 -40 12 0 16 5 13 15 -5 11 1 15 25 15 17 0 31 5 31 10 0 6 7 10
15 10 9 0 12 -6 9 -15 -5 -11 1 -15 22 -14 25 0 26 2 9 9 -19 7 -19 8 -2 15
12 5 24 0 38 -16 18 -21 18 -24 4 -38 -13 -14 -17 -14 -24 -2 -5 8 -16 11 -26
8 -9 -4 -13 -12 -9 -18 5 -8 9 -8 14 1 5 8 9 4 13 -11 5 -19 8 -21 23 -9 9 9
41 15 78 15 42 0 60 4 59 13 -4 17 15 15 34 -4 11 -11 24 -14 42 -9 14 4 56 7
94 7 56 -1 67 2 67 16 0 12 3 14 8 5 5 -7 7 -26 6 -42 -2 -25 2 -31 27 -36 33
-7 33 -9 18 -36 -9 -18 -7 -19 15 -13 20 5 26 2 26 -10 0 -20 19 -20 48 0 12
8 27 12 35 7 21 -13 36 -12 30 3 -7 20 14 17 26 -3 8 -14 12 -15 25 -4 12 10
16 11 16 1 0 -17 81 -4 96 15 6 8 19 15 29 15 14 0 15 -3 6 -14 -9 -11 -9 -16
0 -22 7 -4 15 -2 17 4 2 7 13 10 29 6 l24 -7 -26 29 c-20 22 -23 30 -12 34 8
3 13 17 13 33 -2 27 8 36 19 17 4 -6 12 -7 18 -3 7 4 5 -1 -3 -11 -17 -22 -25
-66 -10 -66 5 0 10 -7 10 -15 0 -9 12 -20 26 -25 34 -13 39 -13 24 5 -8 10 -9
15 -2 15 6 0 15 -6 19 -13 13 -22 43 -29 50 -12 4 12 9 13 18 5 10 -8 15 -8
20 0 7 12 46 3 56 -12 8 -12 41 1 33 14 -3 5 -17 13 -31 19 -26 10 -29 39 -4
47 9 3 11 0 7 -7 -9 -14 12 -43 24 -36 5 3 15 -4 23 -15 12 -17 16 -18 26 -6
10 11 8 17 -6 25 -10 6 -13 10 -8 11 15 0 36 -16 34 -26 -5 -27 2 -43 16 -38
8 4 15 1 15 -6 0 -6 5 -8 10 -5 6 4 8 11 5 16 -13 20 24 20 44 0 27 -27 26
-33 -4 -61 -24 -23 -24 -23 -102 -7 -43 8 -96 20 -118 26 -56 15 -150 23 -269
24 -138 0 -321 -9 -334 -17 -6 -3 -34 -8 -64 -11 -110 -10 -161 -16 -169 -20
-10 -7 -103 -25 -158 -31 -24 -3 -55 -13 -68 -21 -14 -10 -32 -13 -49 -9 -18
5 -32 2 -45 -10 -11 -10 -22 -14 -25 -11 -4 3 -20 -1 -36 -9 -17 -9 -32 -13
-35 -10 -3 3 -31 -8 -62 -23 -31 -16 -83 -39 -116 -51 -33 -13 -84 -34 -113
-47 -29 -14 -58 -26 -65 -27 -15 -3 -70 -29 -77 -36 -14 -14 -98 -50 -118 -50
-15 0 -26 -8 -32 -25 -5 -14 -17 -25 -27 -26 -10 0 -38 -16 -63 -34 -25 -19
-61 -43 -81 -54 -19 -11 -42 -27 -49 -36 -8 -10 -23 -21 -35 -26 -27 -12 -54
-29 -88 -57 -16 -12 -38 -22 -50 -22 -12 0 -28 -9 -35 -20 -7 -11 -18 -20 -26
-20 -7 0 -34 -16 -59 -35 -25 -19 -49 -35 -53 -35 -4 0 -16 -7 -26 -17 -10 -9
-27 -21 -37 -27 -10 -6 -70 -45 -132 -86 -63 -42 -130 -84 -149 -95 -19 -10
-59 -35 -89 -54 -29 -20 -73 -48 -96 -63 -24 -15 -52 -35 -62 -45 -10 -10 -45
-31 -78 -47 -33 -16 -67 -38 -76 -49 -9 -10 -28 -21 -43 -22 -16 -2 -34 -12
-41 -23 -10 -13 -22 -17 -42 -15 -31 5 -171 -57 -222 -98 -16 -13 -51 -36 -77
-51 -27 -16 -56 -32 -64 -37 -38 -24 -246 -93 -350 -116 l-115 -26 -15 22
c-62 91 -144 128 -308 138 -133 9 -222 0 -352 -35 -81 -22 -228 -80 -294 -116
-73 -39 -93 -52 -111 -67 -26 -22 -91 -51 -114 -51 -18 0 -44 -11 -191 -77
-36 -16 -92 -40 -125 -53 -33 -13 -65 -27 -72 -32 -15 -12 -211 -75 -288 -94
-81 -19 -111 -18 -143 5 -15 11 -63 32 -107 46 -61 20 -84 24 -101 16 -15 -7
-34 -7 -56 0 -31 9 -129 12 -173 5 -39 -6 -109 -28 -159 -50 -98 -44 -362 -98
-375 -78 -3 5 -21 13 -39 17 -25 5 -36 15 -44 36 -7 21 -25 37 -61 56 -46 23
-59 25 -132 20 -44 -3 -132 -17 -195 -31 -63 -14 -140 -31 -170 -37 -30 -6
-95 -22 -145 -35 -54 -15 -140 -28 -213 -33 -68 -5 -129 -14 -135 -20 -8 -8
-7 -11 6 -11 9 0 17 -3 17 -7 0 -11 50 -33 74 -33 27 0 82 -18 132 -43 28 -13
48 -17 60 -12 11 5 24 7 29 5 6 -2 58 -5 117 -6 80 -2 113 -7 132 -19 26 -17
26 -17 70 31 42 47 45 48 97 47 75 -1 134 -10 158 -22 11 -6 33 -11 50 -11 16
0 32 -4 35 -9 3 -5 31 0 62 10 65 22 94 27 150 28 30 1 52 9 79 31 41 33 79
38 105 15 13 -12 23 -13 44 -5 29 11 51 8 129 -17 45 -14 52 -21 47 -52 -1
-11 7 -12 37 -5 21 4 52 9 68 9 35 2 104 23 122 37 8 6 29 7 50 3 78 -15 93
-15 93 1 0 8 7 28 15 44 16 32 51 40 73 18 9 -9 12 -9 12 0 0 7 5 12 10 12 6
0 9 -20 8 -45 -1 -51 12 -72 39 -60 24 11 30 12 87 13 48 2 48 2 43 31 -6 29
-6 29 28 20 38 -11 94 11 129 50 11 12 26 19 36 16 9 -3 25 3 35 15 10 11 25
20 34 20 9 0 30 7 46 16 34 18 157 52 230 64 28 5 92 15 143 24 51 8 106 22
123 30 16 8 43 18 61 21 18 4 60 25 94 46 34 22 68 39 76 39 8 0 23 9 34 21
25 28 89 56 170 75 37 8 83 22 101 29 49 21 167 20 243 -2 74 -20 96 -34 130
-81 23 -31 23 -32 4 -46 -16 -12 -21 -12 -34 -1 -20 18 -125 65 -145 65 -9 0
-26 5 -38 11 -29 16 -174 20 -217 6 -19 -6 -46 -19 -60 -27 -14 -9 -45 -25
-70 -34 -25 -10 -52 -23 -60 -30 -8 -8 -36 -21 -62 -31 -27 -10 -48 -21 -48
-26 0 -4 -10 -11 -22 -14 -13 -4 -37 -18 -54 -31 -17 -12 -69 -35 -115 -49
-46 -15 -102 -35 -124 -46 -50 -24 -55 -24 -55 1 0 11 -5 20 -11 20 -6 0 -8
-7 -5 -16 5 -13 1 -15 -18 -10 -16 4 -26 1 -30 -9 -3 -9 -18 -15 -35 -15 -16
0 -33 -5 -36 -10 -5 -8 -11 -7 -21 1 -11 9 -24 9 -54 0 -37 -11 -40 -15 -39
-44 3 -55 9 -70 24 -57 8 7 19 9 25 5 13 -8 13 1 0 26 -7 13 -7 19 0 19 18 0
50 -34 50 -53 0 -15 2 -16 14 -5 8 8 10 15 4 19 -5 3 -2 9 7 13 32 12 45 6 45
-20 0 -21 -4 -25 -19 -21 -13 3 -18 1 -14 -8 5 -14 34 -14 66 0 9 4 24 4 33 1
11 -4 22 1 31 13 7 11 20 18 27 15 16 -6 138 76 186 126 34 36 128 80 171 80
11 0 34 8 52 17 26 13 64 17 197 19 114 1 171 -2 185 -11 11 -6 42 -18 68 -26
27 -8 53 -21 58 -30 4 -9 22 -22 38 -29 16 -6 41 -29 56 -50 24 -34 83 -70
116 -70 5 0 23 -14 39 -32 l29 -32 112 2 c62 1 114 4 117 6 7 8 -37 138 -85
244 -23 53 -30 92 -15 92 4 0 12 15 17 32 6 21 17 34 30 36 11 2 25 11 32 19
10 13 16 12 44 -10 29 -23 33 -23 61 -10 24 12 27 18 17 29 -7 8 -18 13 -26
10 -7 -3 -13 0 -13 8 0 21 11 26 32 15 16 -9 20 -5 29 20 6 17 17 31 24 31 7
0 21 3 29 6 12 5 15 2 10 -10 -4 -12 0 -16 15 -16 23 0 29 15 9 23 -7 3 -3 6
10 6 12 1 22 5 22 10 0 5 17 16 38 24 21 8 44 22 51 31 7 9 17 14 21 11 4 -3
11 2 14 10 4 13 10 14 26 5 16 -8 22 -8 26 3 5 15 50 17 72 4 7 -5 12 -3 12 3
0 6 4 9 10 5 5 -3 7 -12 3 -20 -3 -8 0 -15 6 -15 22 0 81 29 81 40 0 20 -21
51 -30 45 -5 -3 -12 0 -16 6 -5 8 0 10 18 6 15 -4 33 0 48 10 34 24 81 25 87
2 6 -22 26 -25 42 -5 8 10 9 16 1 21 -5 3 -10 3 -10 -2 0 -4 -7 3 -16 15 -12
17 -21 21 -42 16 -15 -4 -24 -3 -19 2 10 10 89 14 102 5 6 -5 21 -11 34 -14
30 -7 103 47 94 70 -5 12 -1 14 15 9 15 -5 35 3 69 27 26 19 58 38 70 41 11 4
27 13 33 21 7 8 21 15 33 15 26 0 123 56 131 75 3 8 12 15 21 15 8 0 35 20 59
44 24 23 80 69 123 100 43 31 98 72 123 91 71 54 130 95 139 95 4 0 18 9 31
20 13 11 32 20 42 20 10 0 21 7 24 15 6 14 8 13 19 -2 13 -17 15 -17 42 7 15
14 29 28 31 33 2 4 14 7 27 7 14 0 29 9 35 20 8 15 8 20 -3 20 -7 0 -18 -5
-25 -12 -7 -7 -12 -8 -12 -2 0 14 39 36 52 28 7 -4 8 -3 4 4 -6 11 5 16 26 13
4 0 12 8 18 20 9 16 14 18 25 9 11 -9 24 -8 55 6 22 10 40 21 40 26 0 16 44
46 77 53 19 3 67 21 106 40 40 18 91 36 115 39 24 4 51 10 60 15 73 39 289 63
299 34 3 -7 -4 -11 -16 -10 -12 1 -45 -11 -74 -25 -95 -48 -210 -88 -250 -88
-14 0 -30 -6 -36 -14 -7 -8 -27 -17 -46 -20 -19 -4 -35 -11 -35 -16 0 -6 -7
-10 -16 -10 -8 0 -39 -16 -68 -35 -29 -19 -56 -35 -59 -35 -7 0 -111 -70 -117
-80 -3 -4 -20 -15 -37 -24 -18 -9 -33 -20 -33 -24 0 -10 -87 -72 -100 -72 -5
0 -31 -20 -57 -43 -138 -126 -206 -184 -289 -246 -50 -38 -100 -80 -111 -94
-11 -14 -48 -44 -82 -67 -33 -22 -61 -43 -61 -45 0 -3 18 -5 40 -5 34 0 40 3
40 20 0 13 14 29 38 43 46 27 46 27 105 -2 31 -15 56 -21 72 -17 21 5 25 12
25 46 0 29 5 42 20 50 10 6 26 25 35 44 25 52 70 79 131 80 29 0 59 -6 67 -12
13 -11 20 -8 41 13 14 14 32 25 41 25 28 0 16 -29 -22 -53 -37 -23 -74 -58
-119 -108 -12 -13 -41 -40 -64 -59 -24 -19 -57 -47 -74 -62 -17 -15 -48 -41
-68 -58 -43 -36 -49 -60 -15 -61 12 0 41 -2 64 -5 24 -3 53 0 65 6 13 7 -26
-35 -85 -91 -60 -56 -113 -113 -118 -127 -8 -21 -13 -23 -48 -17 -29 5 -42 2
-56 -11 -13 -14 -21 -15 -35 -6 -14 9 -21 7 -36 -9 -22 -24 -30 -24 -37 1 -3
11 -12 20 -20 20 -7 0 -60 -42 -117 -92 -153 -137 -160 -160 -34 -102 116 53
241 100 304 114 30 7 68 16 83 21 16 5 57 6 91 3 57 -5 67 -3 127 29 132 72
293 104 442 87 128 -15 178 -45 201 -122 5 -15 12 -14 70 12 36 17 75 30 87
30 13 0 41 22 73 56 99 108 390 330 531 405 64 33 97 44 170 54 107 15 148 4
194 -52 28 -33 31 -35 63 -24 86 28 217 8 296 -45 19 -13 42 -24 50 -24 54 0
269 198 349 321 25 40 69 98 97 129 28 31 92 103 143 161 135 153 340 348 438
416 23 15 68 47 100 71 112 81 251 167 291 180 21 8 54 20 72 29 19 8 76 22
127 30 85 14 97 14 133 0 l41 -16 93 49 c141 74 262 112 356 110 42 -1 85 -1
95 -1 16 1 17 133 17 2626 l0 2625 -9600 0 -9600 0 0 -2854z m9783 2206 c21
-23 47 -85 47 -112 0 -26 -29 -26 -80 0 -67 34 -89 86 -48 114 30 21 61 20 81
-2z m3917 -132 c11 -11 20 -24 20 -29 0 -21 -22 -67 -37 -79 -10 -6 -22 -27
-28 -44 -18 -58 -69 -46 -81 20 -6 31 -3 38 21 58 16 12 25 27 20 33 -10 17
22 61 45 61 11 0 29 -9 40 -20z m-1803 -742 c73 -31 91 -77 50 -132 -25 -35
-37 -60 -62 -129 -9 -26 -25 -52 -36 -57 -25 -14 -62 -3 -89 25 -42 45 -22
172 28 177 9 1 28 2 42 2 17 1 24 6 22 16 -16 70 -14 110 7 110 6 0 23 -5 38
-12z m9 -1094 c42 -39 43 -67 5 -105 -41 -40 -94 -40 -138 1 -17 16 -35 40
-39 52 -4 13 -12 26 -18 30 -7 5 -1 16 19 32 23 18 40 23 83 23 47 -1 60 -5
88 -33z m-4299 -288 c-3 -8 1 -17 9 -20 9 -3 14 1 15 12 1 14 2 14 6 1 3 -11
12 -14 36 -11 28 4 30 3 19 -10 -10 -13 -10 -17 2 -21 9 -4 17 2 21 14 4 10
11 17 16 14 5 -4 5 -14 -1 -25 -13 -25 -13 -27 10 -33 10 -3 21 0 24 7 2 6 5
4 5 -5 1 -10 -9 -19 -23 -23 -21 -5 -24 -11 -22 -44 2 -20 -1 -46 -6 -57 -7
-17 -8 -16 -5 6 4 26 3 26 -26 14 -54 -23 -124 7 -128 54 -1 9 -3 27 -4 40 -1
13 6 32 16 42 10 10 14 21 9 24 -18 11 -10 35 11 35 14 0 19 -5 16 -14z
m-6317 -1350 c54 -5 119 -14 165 -22 6 -1 20 -2 32 -3 41 -2 71 -52 38 -65 -8
-3 -67 6 -132 20 -65 14 -167 34 -228 45 -194 34 -202 38 -65 34 69 -2 154 -6
190 -9z m10922 -316 c31 -31 32 -42 8 -105 -8 -20 -16 -25 -45 -25 -28 0 -37
5 -44 22 -7 21 -9 20 -20 -14 -20 -62 -73 -61 -92 2 -17 57 1 84 52 77 30 -4
39 -2 39 9 0 17 44 64 60 64 6 0 25 -14 42 -30z"/>
<path d="M1020 5543 c-76 -40 -84 -47 -98 -89 -12 -38 -4 -53 29 -56 28 -2 89
36 89 56 0 7 14 30 30 51 30 37 37 60 23 68 -5 3 -37 -11 -73 -30z"/>
<path d="M110 4948 c-48 -13 -58 -26 -63 -77 -4 -36 -1 -44 14 -48 11 -3 19
-9 19 -13 0 -16 83 -90 101 -90 11 0 22 -7 25 -15 8 -21 24 -8 24 20 0 13 -12
33 -27 47 -52 44 -59 95 -20 156 20 30 -10 38 -73 20z"/>
<path d="M12120 4861 c-54 -18 -120 -49 -130 -60 -3 -3 -25 -16 -50 -29 -40
-20 -105 -73 -137 -113 -10 -12 -8 -15 7 -16 11 -1 22 2 25 8 4 5 27 9 53 9
26 0 59 7 75 14 16 9 27 11 27 4 0 -6 8 -7 18 -3 9 4 24 8 32 10 8 2 27 8 43
14 15 6 27 8 27 5 0 -4 6 -2 13 4 17 14 69 15 134 3 41 -8 60 -18 95 -54 24
-24 42 -49 40 -56 -2 -6 1 -11 6 -11 13 0 33 -60 34 -102 1 -17 7 -43 14 -56
7 -14 10 -31 7 -38 -3 -8 0 -21 7 -29 7 -8 9 -15 6 -15 -4 0 -1 -7 6 -15 7 -8
19 -22 27 -30 7 -10 17 -13 22 -8 11 11 13 248 3 265 -4 7 -7 27 -6 44 4 56
-76 204 -111 204 -6 0 -18 6 -26 13 -22 18 -145 57 -179 56 -15 0 -52 -8 -82
-18z"/>
<path d="M11155 4786 c-13 -7 -19 -19 -17 -33 4 -24 -32 -51 -43 -33 -3 5 -11
10 -17 10 -6 0 -1 -11 12 -25 20 -22 21 -25 6 -31 -9 -3 -28 -4 -41 -2 -31 6
-33 -4 -2 -17 12 -6 23 -20 25 -33 4 -23 2 -24 -71 -20 l-75 3 33 -41 c19 -23
31 -44 28 -48 -4 -3 1 -6 10 -6 10 0 17 5 17 10 0 6 16 20 35 31 20 12 35 29
35 40 0 10 7 19 15 19 23 0 18 -40 -9 -65 -25 -23 -18 -49 10 -38 12 5 16 -2
13 -23 0 -4 5 -11 13 -15 10 -7 9 -9 -4 -9 -10 0 -18 -4 -18 -10 0 -14 16 -13
40 2 16 10 24 10 40 1 16 -11 18 -10 14 2 -3 7 -18 16 -32 18 -26 4 -26 4 4 6
16 0 34 5 40 11 6 6 15 6 24 0 8 -5 10 -10 5 -10 -6 0 -11 -8 -11 -18 0 -15 4
-16 22 -8 12 6 20 14 18 18 -3 5 2 8 11 8 11 0 15 -5 11 -15 -6 -16 9 -21 19
-5 3 5 12 7 20 3 8 -3 15 -1 16 3 0 5 3 37 5 71 l5 62 -48 3 c-40 2 -48 6 -48
23 0 11 10 24 23 31 37 18 36 23 -7 17 -32 -4 -41 -2 -41 10 0 8 7 17 15 21
26 10 16 21 -17 21 -29 0 -33 3 -33 27 1 14 -3 24 -7 22 -4 -2 -10 2 -15 9 -6
10 -13 11 -28 3z"/>
<path d="M12098 4649 c-16 -6 -28 -14 -28 -19 0 -12 -76 -24 -140 -21 -83 3
-184 -25 -200 -55 -8 -13 -19 -24 -26 -24 -16 0 -56 -49 -49 -60 3 -5 -4 -12
-16 -15 -16 -5 -18 -10 -10 -18 9 -9 14 -8 20 2 5 7 14 10 20 7 7 -5 11 3 11
20 0 32 13 24 17 -12 2 -15 -2 -27 -12 -30 -15 -6 -21 -34 -7 -34 4 0 15 8 24
18 30 31 48 43 57 37 5 -3 16 1 24 9 11 11 17 12 26 3 8 -8 11 -7 11 5 0 20
19 34 30 22 14 -15 22 -54 11 -54 -5 0 -11 8 -13 18 -3 14 -5 13 -10 -5 -5
-20 -2 -23 23 -23 21 0 29 5 30 18 0 9 3 12 5 6 5 -13 74 2 85 19 3 4 10 7 15
6 30 -5 53 2 48 16 -4 8 -1 15 6 15 6 0 14 -8 17 -19 5 -19 123 -68 123 -50 0
4 7 6 16 2 9 -3 14 -13 11 -23 -3 -13 2 -19 19 -23 14 -2 27 0 30 4 3 5 0 9
-5 9 -6 0 -11 5 -11 10 0 6 4 10 9 10 16 0 41 -30 41 -48 0 -13 -2 -14 -9 -3
-7 10 -12 8 -24 -9 -12 -17 -13 -28 -5 -46 11 -25 26 -28 66 -18 19 5 22 12
18 30 -4 13 -2 24 3 24 5 0 12 11 15 25 4 14 11 25 16 25 6 0 10 8 10 18 0 10
-3 13 -8 6 -4 -6 -17 -13 -29 -16 -22 -6 -22 -5 -5 18 9 13 20 24 25 24 10 0
9 30 -2 30 -5 0 -7 9 -4 21 5 18 1 33 -26 88 -23 47 -178 85 -243 60z"/>
<path d="M17722 4383 c-12 -2 -20 -8 -17 -13 3 -5 12 -7 19 -4 9 3 17 -3 21
-15 8 -26 -1 -42 -20 -35 -7 3 -23 1 -34 -5 -14 -8 -22 -8 -26 0 -9 14 -67 0
-82 -20 -11 -15 -13 -14 -26 3 -13 18 -14 17 -40 -6 -15 -14 -27 -30 -27 -37
0 -6 -5 -11 -11 -11 -8 0 -7 -5 1 -15 16 -19 5 -32 -13 -17 -14 12 -27 7 -27
-10 0 -5 10 -13 23 -18 22 -9 22 -9 0 -9 -12 -1 -24 -7 -27 -13 -3 -10 -8 -9
-18 3 -11 14 -15 14 -26 2 -11 -11 -11 -21 -2 -48 13 -39 7 -57 -16 -48 -9 3
-14 0 -12 -7 2 -7 -8 -16 -22 -20 -25 -7 -21 -11 20 -23 11 -2 8 -8 -11 -18
-63 -35 -89 -55 -89 -69 0 -10 -7 -7 -20 10 -10 14 -22 22 -26 18 -4 -4 -1
-14 6 -23 10 -12 10 -15 -1 -16 -17 -1 -70 -63 -73 -86 -2 -14 -11 -17 -38
-15 -40 4 -61 -15 -81 -74 -9 -26 -21 -39 -33 -40 -10 -1 -29 -2 -41 -3 -13
-1 -23 -7 -23 -16 0 -18 -21 -20 -40 -2 -12 10 -12 9 -1 -6 17 -22 6 -35 -17
-21 -15 10 -35 40 -45 68 -1 5 -17 1 -34 -8 -18 -9 -42 -18 -55 -19 -30 -5
-30 -21 0 -25 13 -2 26 -10 29 -18 7 -19 23 -18 38 3 16 22 38 7 31 -22 -3
-12 1 -36 9 -52 12 -23 24 -32 53 -37 65 -10 102 -7 102 9 0 8 11 17 24 21 14
3 27 15 30 29 3 13 15 26 25 30 10 3 22 17 25 31 4 16 19 30 41 39 30 13 35
21 45 69 8 41 19 61 40 78 17 13 30 29 30 36 0 6 9 12 20 12 13 0 18 5 14 15
-4 9 1 18 12 22 11 4 28 15 39 26 11 10 32 21 48 24 15 3 27 12 27 19 0 17 16
18 26 2 5 -8 10 -5 15 9 4 12 23 26 46 33 21 6 48 16 60 22 17 9 28 7 49 -6
17 -12 30 -14 36 -8 6 6 24 6 46 1 20 -4 40 -6 44 -3 4 3 20 -2 35 -10 16 -8
49 -18 75 -21 46 -6 47 -7 53 -48 3 -23 8 -54 11 -69 6 -29 -4 -36 -23 -17 -8
8 -13 2 -18 -20 -4 -20 -11 -29 -18 -24 -17 11 -41 10 -49 -2 -5 -7 -14 -6
-27 2 -16 10 -22 9 -31 -3 -10 -11 -16 -12 -27 -3 -11 9 -17 8 -28 -7 -18 -23
-19 -36 -3 -52 8 -8 8 -15 -2 -27 -8 -10 -9 -15 -1 -15 6 0 11 4 11 9 0 5 8
17 17 26 16 16 17 16 30 -1 12 -17 13 -17 13 3 0 23 27 56 39 48 14 -8 7 -90
-6 -87 -22 4 -14 -24 10 -35 21 -10 21 -10 -10 -17 -47 -11 -42 -33 5 -27 15
2 16 -14 1 -41 -6 -11 -8 -23 -4 -26 10 -10 45 37 45 59 0 25 16 24 23 -1 8
-32 52 -36 90 -8 17 14 43 29 57 33 14 4 30 11 35 15 6 4 35 13 65 20 54 13
81 24 110 47 8 6 34 16 56 22 23 6 72 28 110 49 38 20 82 44 98 52 35 18 123
106 141 141 8 14 11 37 8 50 -10 38 -53 89 -82 96 -14 3 -32 10 -39 16 -13 11
-136 -7 -157 -23 -9 -7 -41 -14 -168 -37 -38 -7 -54 9 -62 65 -8 57 -21 82
-40 82 -8 0 -15 5 -15 11 0 5 -16 17 -35 25 -19 8 -35 19 -35 24 0 6 -9 10
-19 10 -11 0 -21 6 -24 13 -3 9 -10 7 -25 -6 -20 -18 -20 -18 -15 1 2 11 -1
23 -8 28 -19 11 -62 12 -76 2 -7 -5 -14 -5 -18 2 -6 10 -48 11 -93 3z"/>
<path d="M19115 3979 c-44 -14 -129 -43 -190 -64 -60 -20 -140 -46 -178 -56
-37 -11 -95 -32 -130 -48 -34 -16 -87 -36 -117 -46 -53 -16 -72 -24 -193 -79
-32 -14 -62 -26 -67 -26 -6 0 -44 -16 -86 -35 -41 -19 -80 -35 -86 -35 -5 0
-22 -6 -36 -14 -75 -40 -139 -68 -265 -116 -112 -42 -140 -50 -152 -40 -8 7
-15 17 -15 22 0 12 56 86 83 111 16 14 18 20 8 30 -10 9 -15 8 -25 -5 -7 -10
-20 -18 -28 -18 -9 0 -21 -7 -28 -15 -14 -17 -100 -21 -100 -4 0 6 5 19 10 29
14 27 -5 35 -23 10 -9 -13 -20 -18 -31 -14 -12 4 -14 10 -6 19 11 13 4 25 -17
25 -7 0 -13 -8 -13 -18 0 -10 -10 -24 -21 -32 -31 -22 -60 -52 -70 -75 -5 -11
-13 -27 -18 -35 -5 -8 -15 -35 -22 -59 -15 -51 -49 -96 -88 -115 -36 -18 -206
-76 -223 -76 -24 0 -41 42 -29 72 12 32 33 44 101 59 36 8 65 23 91 46 71 64
36 84 -41 24 -19 -16 -51 -31 -70 -34 -19 -4 -48 -14 -64 -22 -15 -8 -36 -15
-46 -15 -10 0 -29 -6 -43 -13 -19 -10 -23 -17 -16 -28 17 -28 10 -87 -13 -109
-26 -25 -76 -53 -98 -56 -8 -1 -42 -5 -75 -8 -33 -4 -103 -14 -155 -21 -208
-31 -330 -45 -425 -49 -99 -5 -165 -12 -385 -41 -71 -9 -196 -15 -326 -15
-116 0 -214 -3 -217 -7 -4 -3 -57 -5 -119 -3 -62 1 -126 2 -143 2 -16 0 -73
-1 -125 -2 -108 -1 -172 -10 -168 -25 2 -5 17 -8 33 -7 19 2 42 -6 62 -21 27
-19 41 -23 90 -20 32 2 98 4 147 4 49 0 97 4 107 10 13 6 29 5 54 -5 19 -8 37
-11 40 -6 5 8 20 5 125 -25 30 -8 93 -18 140 -21 47 -3 105 -8 130 -11 25 -3
71 -5 104 -4 51 1 67 -3 133 -39 55 -30 80 -39 96 -34 12 5 25 7 29 6 4 -1 27
-4 50 -7 74 -8 113 -17 126 -28 20 -16 82 -23 259 -30 81 -4 117 -9 127 -20
11 -10 30 -13 73 -10 123 10 283 11 289 1 4 -6 0 -14 -7 -19 -23 -14 0 -23 64
-25 34 0 72 -4 85 -7 15 -4 22 -1 22 9 0 19 29 18 36 -1 4 -9 19 -15 38 -15
18 0 36 -4 42 -9 5 -5 29 -12 53 -14 27 -3 47 -11 53 -21 13 -24 64 -21 71 4
4 16 11 19 35 14 17 -4 32 -1 36 5 12 18 62 12 110 -13 25 -14 59 -27 76 -31
16 -4 32 -11 35 -16 8 -12 52 -11 60 1 4 7 21 8 43 3 61 -11 95 -10 134 5 34
13 40 12 70 -6 18 -11 60 -23 93 -27 33 -4 68 -11 78 -17 14 -7 23 -5 36 6 24
22 35 20 51 -9 7 -14 18 -25 24 -25 6 0 28 -11 48 -25 42 -28 83 -33 92 -10 9
25 176 10 176 -16 0 -4 6 -6 13 -3 8 3 37 -7 66 -22 36 -17 64 -25 87 -22 22
3 34 0 34 -8 0 -14 -41 -22 -100 -18 -25 2 -128 6 -230 9 -105 3 -217 12 -260
21 -41 8 -91 12 -111 9 -22 -4 -62 0 -96 9 -32 8 -101 17 -153 21 -52 3 -108
7 -125 9 -71 10 -215 26 -270 31 -33 3 -76 10 -95 15 -19 5 -60 11 -90 14 -30
2 -70 10 -88 16 -18 7 -48 10 -66 7 -17 -3 -52 -1 -76 5 -25 5 -72 14 -105 18
-123 18 -231 39 -258 49 -16 6 -45 11 -65 11 -21 0 -53 5 -72 10 -42 13 -183
32 -260 36 -31 1 -77 5 -103 9 -56 9 -62 0 -9 -15 41 -12 362 -78 432 -90 99
-16 237 -42 275 -51 22 -5 76 -14 120 -19 44 -5 116 -16 160 -25 44 -9 113
-20 153 -25 40 -5 76 -11 80 -14 11 -6 151 -25 267 -36 50 -5 158 -18 240 -29
83 -12 179 -21 215 -21 36 0 106 -7 155 -15 50 -8 108 -15 130 -15 23 0 68 -7
100 -16 33 -8 83 -17 110 -19 235 -15 245 -17 266 -43 15 -19 22 -23 31 -14 9
9 9 12 0 12 -7 0 -12 4 -12 10 0 5 13 8 30 7 16 -1 30 -3 30 -4 0 -9 -37 -43
-47 -43 -6 0 -15 -5 -19 -12 -5 -7 -3 -8 6 -3 10 6 12 4 7 -8 -4 -11 -1 -17 8
-17 9 0 24 -6 36 -12 18 -11 23 -9 46 16 21 25 27 28 37 15 6 -7 18 -14 26
-14 10 0 14 -9 13 -27 -1 -16 3 -28 8 -28 6 0 7 -4 4 -10 -3 -5 2 -11 12 -11
10 -1 28 -3 40 -4 12 -1 20 1 18 6 -3 4 5 11 17 15 32 10 80 7 87 -5 4 -6 16
-9 28 -8 12 0 20 4 17 8 -2 4 0 9 6 11 7 2 9 319 8 954 l-3 950 -80 -27z"/>
<path d="M12020 3489 c-60 -6 -113 -19 -179 -46 -87 -35 -100 -43 -195 -137
l-101 -100 33 -7 c19 -4 39 -12 45 -18 6 -6 19 -11 28 -11 9 0 19 -7 23 -15 4
-10 14 -13 36 -9 20 5 30 3 30 -6 0 -10 3 -10 15 0 8 7 12 16 9 21 -3 5 0 9 6
9 6 0 9 3 7 8 -3 4 33 7 80 8 63 0 87 4 94 15 26 44 25 43 74 20 47 -22 49
-22 139 -6 91 15 145 23 179 24 9 1 17 6 17 12 0 5 -4 7 -10 4 -6 -3 -10 4
-10 18 0 23 -56 115 -98 164 -18 20 -112 65 -130 62 -4 -1 -45 -5 -92 -10z"/>
<path d="M0 940 l0 -940 3468 0 c3715 1 3490 -2 3384 45 -19 8 -52 29 -75 47
-22 18 -52 38 -66 45 -56 25 3 11 165 -41 93 -30 195 -64 226 -75 l58 -21
1792 2 1793 3 -280 92 c-154 50 -307 98 -340 107 -33 9 -114 33 -180 54 -66
22 -221 65 -345 96 -124 32 -261 70 -305 86 -74 26 -116 37 -280 77 -33 8 -91
24 -130 35 -38 11 -90 24 -115 28 -25 4 -120 24 -212 44 -93 20 -241 52 -330
70 -90 19 -194 42 -233 50 -38 9 -126 25 -195 36 -69 11 -163 27 -210 35 -242
42 -638 95 -855 115 -55 5 -134 14 -175 19 -41 6 -167 20 -280 31 -113 12
-257 27 -320 35 -200 25 -308 35 -560 50 -135 8 -310 19 -390 25 -301 20 -845
49 -1115 60 -154 6 -338 15 -410 21 -304 24 -380 29 -575 39 -113 6 -263 17
-335 25 -465 53 -593 70 -785 101 -118 19 -231 37 -250 39 -59 8 -223 46 -255
60 -16 7 -43 17 -60 21 -16 4 -42 15 -57 25 -14 11 -31 19 -37 19 -6 0 -11 5
-11 10 0 6 -7 10 -16 10 -9 0 -48 11 -87 24 -40 14 -121 39 -182 56 -103 30
-218 67 -430 140 -49 17 -99 35 -110 39 -99 42 -265 101 -282 101 -11 0 -13
-172 -13 -940z"/>
<path d="M18725 1850 c-11 -18 15 -39 67 -55 28 -8 56 -19 62 -24 7 -6 25 -9
41 -7 18 2 48 -7 73 -21 40 -23 48 -24 88 -14 35 9 51 8 80 -4 60 -25 64 -22
64 44 l0 59 -131 -2 c-94 -2 -133 -6 -139 -15 -8 -15 -70 -6 -70 9 0 8 -26 17
-102 34 -15 3 -30 1 -33 -4z"/>
</g>
</svg>
