<?xml version="1.0" standalone="no"?>
<!DOCTYPE svg PUBLIC "-//W3C//DTD SVG 20010904//EN"
 "http://www.w3.org/TR/2001/REC-SVG-20010904/DTD/svg10.dtd">
<svg version="1.0" xmlns="http://www.w3.org/2000/svg"
 width="1920.000000pt" height="1080.000000pt" viewBox="0 0 1920.000000 1080.000000"
 preserveAspectRatio="xMidYMid meet">
<metadata>
Created by potrace 1.16, written by Peter Selinger 2001-2019
</metadata>
<g transform="translate(0.000000,1080.000000) scale(0.100000,-0.100000)"
fill="#000000" stroke="none">
<path d="M13860 10795 c0 -2 57 -91 126 -197 250 -381 381 -606 587 -1008 219
-427 373 -779 537 -1225 113 -308 112 -307 345 -850 182 -426 444 -979 530
-1120 20 -33 55 -94 77 -135 32 -59 107 -192 166 -294 11 -20 -55 34 -99 81
-120 126 -238 300 -416 613 -61 107 -136 240 -167 295 -112 196 -388 768 -596
1235 -336 753 -369 826 -448 990 -41 85 -90 189 -109 230 -86 183 -385 730
-399 730 -2 0 30 -64 71 -142 91 -171 271 -531 377 -753 72 -152 186 -405 493
-1099 306 -691 626 -1317 906 -1767 204 -328 369 -491 581 -572 79 -30 90 -32
223 -31 119 0 149 3 204 22 35 13 65 21 67 19 6 -6 -95 -81 -142 -105 -156
-79 -376 -72 -557 19 -130 66 -203 123 -367 288 -176 177 -181 180 -54 30 81
-94 162 -170 256 -241 25 -20 84 -82 130 -139 201 -250 427 -378 650 -367 48
2 88 2 88 0 0 -9 -174 -84 -260 -112 -142 -46 -270 -63 -423 -56 -209 10 -351
47 -529 138 -259 132 -485 362 -658 671 -18 32 -34 56 -37 53 -12 -12 118
-232 204 -346 83 -110 267 -275 409 -367 60 -39 -205 47 -317 103 -228 113
-457 317 -575 512 l-46 76 31 126 c18 70 40 168 49 220 l18 93 46 -74 c50 -80
88 -123 88 -98 0 8 -9 43 -20 78 -11 35 -33 114 -48 175 -25 104 -27 123 -24
306 4 368 -25 737 -83 1057 -27 147 -80 370 -96 406 -11 26 -14 43 42 -225
123 -588 143 -1163 58 -1666 -41 -249 -133 -561 -219 -749 -251 -544 -726
-874 -1320 -918 -85 -7 -272 14 -308 34 -24 14 41 28 185 40 364 30 754 279
948 605 27 44 72 117 100 161 168 258 323 634 395 957 64 290 85 515 77 833
-7 249 -24 414 -68 660 -31 175 -118 550 -125 542 -3 -2 9 -60 25 -128 148
-622 186 -1179 115 -1669 -35 -241 -128 -559 -230 -785 -209 -463 -457 -746
-824 -944 -112 -60 -346 -156 -513 -212 -82 -26 -205 -73 -275 -103 -70 -31
-192 -74 -272 -96 -80 -23 -183 -52 -231 -66 -93 -27 -206 -48 -374 -69 -60
-8 -120 -17 -132 -20 -35 -8 -485 -5 -523 4 -39 9 -36 11 60 36 398 102 595
182 817 332 186 125 318 233 489 400 268 263 426 466 540 698 87 177 134 316
174 517 39 194 50 294 50 460 0 130 2 141 31 215 106 265 171 548 203 883 16
163 24 476 13 487 -4 3 -7 -57 -7 -134 0 -380 -78 -833 -200 -1159 -189 -505
-398 -809 -725 -1054 -290 -218 -464 -299 -731 -339 -38 -6 -107 -17 -154 -25
-47 -8 -86 -13 -88 -12 -1 2 44 22 100 45 212 88 356 190 549 388 193 199 365
480 471 772 88 242 109 304 143 426 84 298 111 533 102 908 -4 207 -26 457
-42 492 -6 13 1 -97 16 -235 12 -117 16 -578 5 -625 -8 -35 -35 -231 -36 -260
-1 -39 -18 8 -25 70 -3 33 -18 112 -31 175 -14 63 -29 140 -33 171 -5 30 -15
71 -24 90 -8 19 -30 79 -48 134 -67 209 -167 456 -169 417 0 -8 22 -69 49
-135 55 -139 145 -407 137 -414 -2 -3 2 -23 10 -45 8 -23 12 -43 9 -46 -6 -6
-38 -1 -352 53 -193 33 -270 39 -251 19 3 -3 46 -11 94 -19 131 -20 329 -54
414 -71 41 -8 84 -17 96 -19 17 -4 23 -19 37 -102 51 -289 60 -324 74 -319 12
5 13 -1 8 -27 -30 -150 -184 -621 -254 -777 -131 -293 -301 -530 -516 -720
-55 -49 -118 -102 -140 -117 -159 -114 -418 -233 -507 -233 -25 0 -29 -3 -18
-10 8 -5 35 -10 60 -10 61 0 396 54 494 80 242 64 585 284 806 517 123 130
234 294 333 492 l72 143 3 -63 c9 -167 -45 -525 -107 -716 -50 -153 -177 -411
-244 -497 -422 -538 -801 -859 -1222 -1033 -184 -76 -512 -172 -592 -174 -35
0 -127 -15 -112 -18 4 0 51 -10 105 -22 81 -17 137 -21 304 -22 277 -2 450 20
820 101 121 27 345 101 485 162 l119 51 66 -15 c36 -8 80 -18 98 -21 17 -4 32
-9 32 -12 0 -18 -147 -222 -273 -378 -627 -781 -1352 -1514 -1892 -1913 -116
-85 -164 -112 -259 -141 -151 -47 -271 -19 -576 134 -169 85 -403 194 -585
272 -248 108 -629 293 -812 396 -344 193 -714 462 -873 634 -116 126 -248 312
-435 611 l-108 173 34 47 c180 255 351 463 462 563 56 51 109 98 117 106 22
22 -87 -48 -230 -147 -249 -172 -503 -325 -526 -316 -7 3 -27 33 -44 68 -18
35 -91 153 -164 263 -73 110 -156 236 -184 280 l-52 80 158 5 c216 8 225 12
435 217 273 266 411 349 722 438 66 18 113 34 105 34 -37 2 -165 -30 -280 -69
-187 -63 -309 -132 -498 -282 -40 -32 -77 -58 -82 -58 -5 0 -15 13 -23 28 -12
24 -12 31 1 50 13 20 12 22 -9 31 -13 5 -67 13 -119 19 -62 7 -120 20 -165 39
l-70 28 120 7 c103 6 349 48 364 63 12 13 -139 3 -167 -10 -17 -9 -68 -23
-114 -32 -71 -13 -98 -14 -188 -4 -58 7 -119 19 -136 27 -31 15 -135 117 -222
219 -65 75 -38 31 34 -56 87 -105 249 -239 289 -239 9 0 48 -13 87 -30 38 -16
76 -30 84 -30 8 0 14 -6 14 -13 0 -7 12 -18 28 -24 26 -10 25 -11 -18 -12 -44
-2 -46 -3 -140 -112 -96 -112 -148 -157 -208 -177 -32 -11 -33 -10 -70 41 -20
29 -91 125 -157 214 -66 88 -176 247 -244 353 l-124 191 13 60 c7 33 16 62 21
64 4 3 28 -30 52 -72 91 -156 285 -364 396 -426 60 -33 67 -30 13 6 -176 116
-370 358 -491 612 -74 154 -108 252 -151 428 -21 89 -39 147 -39 129 -1 -18 8
-73 19 -122 11 -49 19 -93 18 -97 -1 -5 2 -44 7 -88 l9 -80 6 55 5 55 28 -80
c16 -44 49 -126 74 -182 l45 -102 -21 -91 c-22 -97 -25 -117 -14 -107 5 6 111
-145 242 -346 40 -62 42 -69 28 -85 -8 -9 -23 -37 -33 -62 -9 -25 -20 -49 -24
-53 -10 -11 -126 220 -170 336 -18 48 -35 86 -36 84 -7 -7 54 -174 98 -267 81
-172 203 -348 362 -524 90 -100 78 -101 -33 -3 -170 151 -314 347 -460 632
-11 22 -20 36 -21 32 -1 -21 113 -233 179 -335 45 -69 75 -126 78 -148 12 -90
77 -226 152 -322 58 -73 102 -76 168 -13 28 28 35 30 57 19 25 -11 26 -16 28
-97 l2 -86 3 82 4 82 25 -10 c21 -7 18 -2 -17 31 -24 22 -38 40 -31 40 7 0 18
11 24 25 6 14 15 25 20 25 5 0 21 -21 36 -46 15 -26 72 -115 127 -198 88 -132
208 -322 404 -641 108 -176 295 -461 354 -540 72 -96 289 -313 407 -408 161
-129 443 -317 611 -408 89 -47 87 -32 20 -169 -58 -118 -125 -298 -155 -415
-21 -83 -66 -312 -66 -335 0 -4 -32 -28 -71 -55 -114 -78 -249 -263 -424 -579
-85 -154 -111 -192 -183 -267 -85 -90 -280 -265 -286 -258 -2 2 14 33 36 69
63 104 191 366 230 475 96 261 156 580 158 829 0 82 -9 25 -20 -118 -40 -541
-224 -998 -600 -1496 -107 -140 -283 -332 -399 -433 -64 -56 -139 -122 -166
-145 -50 -43 -50 -43 14 5 181 136 397 358 584 601 66 85 123 146 188 201 52
44 137 120 189 169 52 50 96 89 97 88 2 -1 -13 -34 -33 -72 -71 -139 -8 -40
225 356 113 191 247 384 325 467 69 74 181 152 263 183 114 43 333 92 333 75
0 -2 -9 -22 -20 -46 -11 -24 -20 -58 -20 -76 0 -27 -4 -32 -37 -41 -37 -10
-38 -10 -7 -11 40 -1 60 16 67 60 5 37 23 80 55 139 11 19 35 67 53 105 18 39
53 93 78 121 43 47 42 47 -9 -5 -30 -31 -68 -81 -84 -112 -36 -69 -74 -95
-150 -104 -89 -10 -202 -42 -285 -81 -41 -19 -76 -32 -78 -30 -6 5 23 180 46
278 28 120 100 314 166 450 31 65 60 118 63 118 11 1 591 -284 590 -290 0 -3
-29 -31 -64 -63 -35 -31 -60 -57 -56 -57 4 0 31 22 60 49 68 66 80 71 121 54
l33 -14 -6 -72 c-14 -166 -10 -284 8 -266 3 3 8 75 12 162 5 119 10 157 20
157 19 0 354 -151 722 -326 203 -96 373 -123 490 -76 162 64 394 239 777 587
206 186 603 586 781 785 266 297 699 822 781 946 20 30 38 53 40 51 2 -2 -3
-49 -11 -103 -8 -54 -20 -153 -25 -219 -6 -66 -23 -217 -37 -335 -24 -193 -27
-262 -33 -679 l-6 -464 -90 -61 c-85 -58 -174 -136 -364 -320 -96 -94 -185
-201 -249 -301 -24 -38 -67 -106 -95 -150 -31 -48 -102 -132 -178 -210 -69
-71 -149 -164 -177 -205 -53 -81 -222 -411 -266 -522 -69 -175 -151 -545 -196
-888 -6 -47 -13 -97 -17 -112 -3 -16 -1 -28 5 -28 14 0 29 72 52 245 21 169
47 296 89 435 16 52 32 111 35 130 7 41 40 155 63 220 31 87 201 426 251 500
28 41 103 129 167 195 80 82 141 157 192 235 142 216 162 245 230 322 97 110
372 372 413 393 57 29 197 134 214 161 19 27 10 31 -20 9 -21 -14 -22 -13 -28
32 -3 25 -6 109 -6 185 l0 140 33 -7 c45 -9 135 -51 173 -80 18 -14 39 -25 46
-25 7 -1 26 -11 41 -24 l28 -23 -38 -34 c-84 -76 -224 -273 -293 -409 -12 -25
-65 -121 -117 -213 -110 -194 -137 -266 -130 -350 11 -123 93 -200 262 -242
77 -19 232 -22 305 -6 25 5 45 9 46 8 8 -8 -85 -127 -151 -193 -107 -107 -366
-277 -457 -299 -20 -5 -30 -17 -39 -43 -17 -52 -73 -162 -97 -192 l-21 -25 6
37 c4 25 2 38 -6 38 -6 0 -11 -4 -11 -8 0 -37 -325 -300 -490 -397 -17 -11 5
27 52 86 35 46 36 60 2 28 -87 -80 -214 -297 -289 -494 -24 -64 -95 -307 -95
-327 0 -4 49 -8 108 -8 l108 0 12 43 c6 23 16 89 22 147 9 95 15 116 71 240
33 74 74 163 91 198 l31 63 161 81 c273 137 462 243 555 313 73 54 142 80 209
79 85 -1 95 -14 46 -56 -21 -18 -61 -54 -89 -79 -27 -25 -70 -60 -95 -79 -55
-42 -251 -208 -415 -352 -125 -110 -225 -220 -334 -367 -73 -98 -146 -219
-138 -227 10 -11 25 6 59 64 40 71 139 201 232 307 128 147 360 350 611 534
33 25 106 85 163 134 56 48 102 83 102 76 0 -12 -51 -73 -112 -136 l-31 -31
49 -7 c158 -23 159 -28 17 -162 -147 -137 -482 -480 -591 -603 -17 -19 -54
-68 -82 -108 -48 -68 -49 -72 -27 -72 18 0 33 14 60 54 53 80 238 277 478 508
118 113 230 219 250 236 l35 31 17 -68 c9 -38 35 -111 58 -162 93 -212 92
-206 84 -277 -8 -79 -20 -106 -54 -129 -14 -9 -70 -55 -125 -102 -81 -71 -94
-87 -77 -89 22 -4 122 71 185 137 17 17 33 31 38 31 4 0 8 -38 8 -85 0 -47 4
-85 9 -85 4 0 11 53 14 118 8 142 25 223 71 339 19 48 42 127 50 174 8 47 26
114 40 149 14 35 26 67 26 72 0 5 12 27 26 50 14 23 27 46 29 52 5 25 24 64
33 67 5 2 27 30 49 61 46 65 80 97 145 131 41 22 94 40 100 35 2 -1 13 4 26
11 13 7 32 14 43 16 22 5 49 29 49 45 0 6 6 10 13 9 43 -5 47 0 47 61 0 44 -4
60 -14 60 -7 0 -21 10 -29 22 l-16 23 4 -24 c3 -13 1 -21 -2 -17 -4 4 -8 12
-9 19 -1 7 -5 20 -9 30 -6 14 -2 17 21 17 25 1 27 2 11 11 -10 6 -22 20 -27
32 l-9 22 0 -22 c-1 -29 -21 -30 -21 -2 0 15 -5 19 -15 15 -9 -3 -23 3 -33 14
-9 12 -34 23 -55 27 -20 3 -40 10 -43 14 -3 5 -30 9 -60 9 -53 0 -55 1 -48 23
3 12 12 34 20 48 7 14 14 39 16 55 2 24 -1 30 -19 32 -28 4 -28 14 -3 71 11
24 20 56 20 71 0 22 5 29 26 33 33 6 49 -12 116 -126 29 -50 78 -116 108 -147
64 -67 176 -142 263 -177 34 -14 67 -30 74 -36 18 -19 174 -310 168 -315 -3
-3 -5 -2 -5 2 0 4 -7 0 -16 -9 -9 -9 -13 -19 -10 -23 4 -3 11 0 16 7 7 12 11
11 25 -2 9 -10 12 -17 6 -17 -6 0 -11 -5 -11 -11 0 -6 6 -9 13 -6 9 3 30 -19
57 -60 50 -77 186 -247 226 -283 28 -26 26 -19 -13 39 -29 43 -29 56 1 36 13
-9 28 -15 32 -13 17 4 54 -14 54 -27 0 -7 21 -26 48 -41 42 -24 150 -99 177
-122 6 -5 39 -27 75 -50 53 -35 66 -40 72 -27 5 8 4 23 -2 35 -6 11 -8 25 -5
30 3 6 1 10 -4 10 -6 0 -10 4 -9 10 3 10 -59 86 -101 123 -181 165 -162 165
114 2 192 -114 274 -174 382 -278 157 -152 218 -262 230 -418 6 -83 13 -92 52
-67 15 9 25 9 46 0 14 -7 65 -12 113 -12 l87 1 -131 66 -131 66 -12 46 c-30
118 -91 209 -232 348 -110 109 -205 178 -393 288 -233 136 -509 321 -611 410
-70 61 -228 216 -223 220 2 2 82 -17 178 -41 185 -47 187 -48 320 -64 137 -18
166 -20 350 -29 l175 -8 160 -78 c201 -96 399 -182 690 -297 123 -48 337 -160
498 -259 117 -73 237 -170 352 -286 56 -56 100 -103 99 -103 -2 0 21 -26 51
-57 43 -45 55 -64 55 -88 0 -33 34 -75 61 -75 8 0 23 -14 32 -30 17 -29 45
-43 34 -17 -23 53 -34 67 -54 67 -32 0 -53 27 -53 66 0 37 -10 51 -125 173
-192 202 -422 373 -695 514 -80 41 -262 123 -405 182 -295 122 -602 262 -626
286 -13 13 -55 19 -220 28 -454 24 -766 88 -1015 205 -273 130 -404 282 -481
561 -24 89 -28 117 -28 255 l0 155 72 187 c88 229 88 230 96 190 4 -19 -5 -80
-23 -159 -33 -141 -38 -261 -20 -410 16 -124 57 -277 94 -352 106 -209 353
-351 755 -431 123 -24 387 -60 447 -60 10 0 -28 29 -83 63 -156 100 -374 269
-361 282 3 3 24 -3 47 -14 83 -43 51 -19 -82 62 -170 101 -269 175 -367 269
-190 184 -299 363 -359 590 -33 123 -39 280 -10 263 5 -4 9 1 9 9 0 11 10 16
33 16 17 0 42 3 54 6 18 5 23 1 29 -22 16 -67 46 -115 131 -214 101 -118 124
-140 203 -197 132 -96 232 -133 364 -135 275 -3 328 177 114 390 -87 86 -143
127 -246 180 -138 72 -304 111 -466 112 -70 0 -78 2 -73 18 3 9 13 38 23 65
l16 47 83 0 c285 0 572 -131 792 -363 153 -161 184 -337 81 -461 -67 -82 -214
-132 -360 -121 -187 13 -317 81 -523 275 -44 42 -87 81 -97 88 -23 18 57 -137
121 -233 97 -144 360 -387 516 -476 63 -36 28 -7 -75 61 -137 91 -365 322
-442 449 -32 52 -56 96 -54 99 3 2 48 -32 100 -75 62 -52 127 -95 185 -123
l89 -43 72 -108 c40 -60 110 -154 155 -208 47 -56 78 -102 72 -104 -29 -10
291 -146 458 -195 55 -16 150 -41 210 -56 131 -31 720 -156 738 -156 21 0 -83
64 -228 140 -128 66 -291 161 -560 323 -206 124 -504 331 -505 350 0 4 16 15
36 23 54 23 119 89 144 146 19 44 22 65 18 133 -6 118 -46 193 -163 310 -106
106 -185 165 -296 221 l-81 41 73 35 c41 19 89 47 107 63 46 39 110 136 133
203 81 234 78 411 -10 624 -106 253 -394 540 -628 625 -70 25 -187 32 -303 17
-30 -4 -68 -8 -85 -8 l-30 -1 -1 88 0 89 40 28 c23 15 54 42 70 59 17 17 33
31 37 31 4 0 22 -26 39 -57 44 -79 169 -203 203 -203 36 0 180 76 254 133 68
52 115 104 138 153 24 50 36 162 23 212 -20 78 -106 142 -240 179 -76 20 -70
17 -62 37 3 9 16 16 29 16 28 0 145 113 199 193 22 31 42 57 45 57 4 0 38 -34
76 -76 38 -42 108 -110 157 -152 66 -56 88 -81 88 -99 0 -36 38 -247 60 -333
29 -117 88 -305 127 -410 83 -223 296 -623 509 -955 211 -329 592 -855 804
-1110 46 -55 115 -143 154 -195 38 -52 102 -137 140 -188 39 -51 107 -143 150
-205 153 -217 271 -382 314 -436 23 -30 40 -61 38 -68 -4 -10 30 -13 168 -13
95 0 215 -2 267 -5 72 -3 82 -2 44 4 -27 5 -134 10 -237 11 l-186 2 -42 43
c-23 23 -63 72 -88 108 -26 35 -66 90 -90 121 -23 31 -82 113 -130 184 -47 70
-123 174 -168 232 -44 58 -96 128 -114 155 -37 55 -114 154 -203 258 -32 38
-110 139 -173 225 -64 86 -124 168 -134 182 -10 14 -61 85 -112 158 -51 73
-135 193 -185 265 -51 73 -99 146 -107 163 -24 53 -88 404 -74 404 3 0 40 -51
82 -113 41 -61 89 -130 105 -152 16 -22 46 -64 66 -93 20 -28 53 -71 73 -95
20 -24 64 -79 97 -122 33 -44 62 -82 65 -85 3 -3 28 -36 54 -75 27 -38 68 -92
91 -120 22 -27 62 -78 88 -112 26 -34 53 -68 60 -75 18 -18 178 -224 198 -254
8 -13 31 -41 50 -61 19 -21 50 -58 70 -83 20 -25 54 -63 74 -85 21 -22 49 -56
64 -75 44 -58 62 -80 164 -192 54 -59 103 -111 110 -114 12 -8 -11 23 -48 63
-11 12 -24 28 -30 35 -5 7 -39 47 -75 88 -36 41 -68 79 -73 85 -20 27 -119
143 -147 174 -8 9 -33 39 -55 66 -22 28 -44 55 -50 61 -5 7 -44 56 -85 109
-41 54 -120 154 -176 224 -55 69 -141 185 -192 256 -122 173 -210 289 -231
305 -3 3 -23 31 -44 63 -20 31 -42 57 -47 57 -6 0 -10 7 -10 16 0 9 -11 30
-25 48 -14 17 -29 36 -34 42 -4 5 -14 21 -21 35 -7 13 -16 26 -19 29 -11 8
-81 107 -81 114 0 3 -9 15 -20 26 -11 11 -20 27 -20 35 0 8 -5 15 -12 15 -6 0
-9 3 -5 6 3 3 -2 15 -12 26 -11 11 -21 42 -25 73 -3 29 -9 61 -13 71 -4 12 -3
15 5 10 7 -4 12 -14 12 -23 0 -9 11 -30 24 -47 13 -17 36 -56 51 -86 15 -30
50 -88 76 -129 27 -41 49 -76 49 -79 0 -9 95 -138 189 -257 367 -462 908 -805
1471 -933 224 -51 358 -65 615 -65 254 0 384 13 613 63 203 45 302 77 302 99
0 15 -11 19 -77 24 -430 34 -909 284 -1361 712 -100 94 -196 205 -314 362 -76
100 -198 277 -198 287 0 3 35 -12 78 -33 83 -42 237 -93 342 -112 99 -19 385
-16 505 5 179 32 334 92 445 173 147 106 251 215 302 318 25 49 16 40 -54 -55
-68 -92 -193 -215 -270 -263 -372 -238 -1032 -231 -1365 14 -29 22 -58 49 -64
62 -7 12 -45 72 -86 134 -83 127 -268 462 -309 562 -15 36 -33 73 -40 81 -16
20 -46 81 -42 85 2 2 28 14 58 27 l55 24 185 -186 c167 -168 368 -342 475
-411 222 -144 478 -254 650 -279 220 -31 419 7 603 115 90 52 83 58 -11 9
-190 -99 -351 -127 -567 -99 -173 22 -313 72 -475 170 -52 31 -108 74 -66 50
10 -5 12 -4 7 4 -4 6 -12 9 -17 6 -5 -4 -17 -1 -26 5 -17 11 -17 11 0 6 11 -4
16 -2 12 5 -4 5 -15 7 -24 4 -10 -3 -24 1 -31 10 -7 8 -9 15 -4 15 5 0 -11 12
-36 27 -129 76 -343 268 -540 484 l-79 85 65 43 c35 23 64 46 64 51 0 6 -40 7
-95 3 -94 -6 -145 4 -145 30 0 5 -45 63 -101 129 -55 66 -99 121 -97 122 1 1
38 10 81 19 43 9 107 31 143 48 66 33 169 119 224 189 39 49 36 72 -5 37 -39
-32 -139 -82 -194 -97 -56 -15 -191 -15 -268 0 -33 7 -89 26 -124 44 -63 30
-66 34 -172 191 -59 88 -141 216 -183 285 -85 140 -314 595 -416 826 -112 254
-341 815 -436 1069 -50 132 -113 299 -140 370 -42 110 -51 146 -56 225 -37
518 -137 1013 -305 1520 -77 232 -167 449 -188 457 -25 10 -25 -4 1 -80 33
-96 120 -456 146 -601 21 -119 36 -299 45 -546 l6 -155 -74 135 c-41 74 -90
162 -110 195 l-37 60 6 265 c7 273 -3 401 -41 551 -8 29 -12 38 -10 19 3 -19
12 -86 20 -149 15 -116 20 -533 6 -595 -6 -28 -11 -21 -86 108 -118 202 -306
497 -419 656 -93 131 -106 147 -106 135z m810 -444 c103 -313 204 -761 249
-1108 21 -158 36 -359 25 -333 -4 8 -49 106 -100 217 l-94 201 -10 239 c-18
412 -43 598 -120 875 -53 191 -27 143 50 -91z m44 -4473 c28 -41 28 -42 10
-72 -10 -17 -39 -59 -65 -92 -26 -34 -45 -65 -42 -68 4 -3 0 -6 -7 -6 -7 0
-21 -10 -31 -22 -30 -33 -24 -1 15 89 19 43 44 108 56 146 13 37 25 67 29 67
3 -1 19 -19 35 -42z m-8257 -259 c62 -90 112 -168 113 -172 0 -5 11 -21 25
-36 14 -15 37 -45 50 -67 l24 -40 -30 -34 -30 -33 -36 34 c-75 72 -208 227
-254 297 -45 68 -47 74 -37 110 18 66 40 113 51 109 6 -2 62 -77 124 -168z
m9916 26 c40 -9 81 -18 93 -20 11 -3 41 -30 65 -61 24 -31 72 -93 107 -137 35
-43 61 -81 58 -84 -9 -9 -151 46 -202 79 -79 50 -185 141 -245 209 -77 89 -78
92 -9 60 34 -16 93 -37 133 -46z m-9959 -301 c6 -5 44 -38 84 -73 39 -35 72
-67 72 -71 0 -11 -81 -70 -97 -70 -39 0 -177 222 -189 305 l-6 40 63 -60 c34
-33 68 -65 73 -71z m8171 94 c95 -24 186 -94 201 -154 11 -45 -3 -141 -25
-173 -12 -16 -21 -34 -21 -39 0 -5 -11 -17 -25 -26 -14 -9 -23 -21 -20 -25 15
-25 -134 -139 -242 -187 -72 -32 -84 -27 -168 81 -71 91 -89 121 -80 135 3 6
1 10 -5 10 -20 0 1 43 40 80 46 43 175 209 212 273 30 51 29 51 133 25z m697
-80 c14 -5 57 -204 78 -368 16 -117 49 -314 60 -350 5 -19 10 -57 11 -85 0
-37 3 -45 9 -30 7 16 9 13 9 -16 1 -20 4 -52 7 -70 6 -32 5 -33 -9 -14 -55 74
-240 628 -287 859 -17 81 -30 151 -30 156 0 5 32 -11 71 -35 40 -24 76 -46 81
-47z m256 -108 c49 -10 95 -22 104 -25 16 -6 20 -27 38 -219 6 -56 21 -195 35
-311 13 -115 29 -259 35 -320 14 -138 54 -406 81 -549 11 -59 18 -110 16 -112
-8 -9 -226 354 -295 493 -19 37 -35 89 -41 130 -18 138 -61 408 -67 423 -8 22
-31 153 -44 250 -20 145 -20 147 6 159 13 6 31 8 39 5 8 -4 15 -1 15 5 0 14
-63 14 -77 0 -7 -7 -12 -6 -16 5 -4 10 -1 16 8 16 8 0 15 5 15 11 0 7 11 9 30
6 36 -8 60 0 60 20 0 10 -6 12 -20 8 -14 -5 -20 -2 -20 9 0 20 -7 20 98 -4z
m227 -55 c22 -3 65 -15 95 -26 116 -43 235 -61 425 -62 156 -2 191 1 265 20
47 12 93 25 102 28 14 6 30 -20 89 -137 93 -186 196 -376 277 -513 108 -182
354 -541 468 -685 309 -390 752 -731 1159 -893 151 -60 257 -85 484 -113 24
-3 39 -9 35 -13 -14 -12 -188 -58 -324 -85 -398 -80 -826 -71 -1202 24 -142
36 -432 149 -568 222 -367 196 -713 500 -947 833 -88 125 -201 305 -284 455
l-63 115 -23 220 c-12 121 -29 292 -37 380 -9 88 -18 180 -22 203 -5 39 -3 43
13 39 10 -3 36 -8 58 -12z m-1797 -371 l-3 -87 -116 -37 c-63 -21 -150 -54
-192 -73 l-76 -35 -6 42 c-4 23 -5 57 -3 75 3 32 6 34 98 67 52 18 138 55 190
82 52 27 99 50 103 50 4 1 6 -37 5 -84z m393 -88 c128 -28 208 -90 261 -203
29 -61 30 -70 26 -159 -7 -121 -43 -200 -134 -292 -213 -214 -565 -190 -681
46 -25 51 -28 68 -28 158 0 95 2 103 37 176 79 158 261 282 423 287 17 0 60
-6 96 -13z m-306 -29 c-268 -145 -358 -470 -184 -661 162 -177 459 -166 649
24 164 164 194 366 80 538 -12 17 -18 32 -13 32 5 0 46 -30 91 -66 272 -217
457 -586 421 -838 -11 -80 -70 -263 -104 -322 -42 -73 -130 -139 -243 -183
l-54 -21 -80 25 c-109 34 -368 59 -368 36 0 -25 -48 -121 -60 -121 -5 0 -10
-19 -10 -43 0 -58 -23 -89 -63 -85 -29 3 -31 7 -44 63 -15 64 -47 126 -95 180
-23 27 -38 35 -64 35 -41 0 -44 17 -11 56 14 16 39 30 63 34 l39 8 -36 1 c-43
1 -81 -25 -99 -68 -9 -24 -20 -32 -49 -37 -20 -3 -72 -14 -115 -24 l-79 -18
-79 33 c-91 39 -209 110 -270 163 -23 20 -58 52 -78 69 -21 18 -51 61 -67 95
-44 91 -57 157 -48 247 4 42 7 83 7 91 2 45 74 236 109 289 117 176 381 354
649 439 86 27 210 57 255 61 6 0 -17 -14 -50 -32z m-535 -9 c0 -13 3 -46 6
-75 l7 -52 -54 -33 c-29 -18 -57 -31 -63 -30 -6 2 -8 0 -4 -4 4 -3 -14 -23
-40 -42 -26 -20 -53 -42 -60 -49 -7 -7 -18 -13 -23 -13 -6 0 -8 -4 -5 -8 2 -4
-4 -13 -15 -20 -16 -10 -19 -9 -19 5 0 9 -12 -7 -26 -36 -16 -31 -36 -56 -50
-61 -13 -5 -24 -17 -24 -26 0 -33 -31 -54 -77 -54 l-43 0 0 -40 c0 -43 24 -66
41 -39 15 23 10 37 -13 42 -13 3 -7 4 12 4 31 -2 35 -5 32 -27 -2 -14 -8 -29
-13 -34 -5 -6 -9 -20 -9 -33 0 -13 -4 -23 -9 -23 -5 0 -9 -10 -9 -22 0 -13 -3
-39 -6 -58 -25 -141 -12 -248 44 -360 17 -33 29 -62 28 -64 -2 -2 1 -8 6 -13
5 -5 6 -2 2 7 -5 8 3 2 18 -15 14 -16 25 -34 25 -40 1 -5 -4 -3 -9 5 -9 13
-10 13 -10 0 0 -13 -2 -13 -9 0 -6 8 -7 18 -4 24 3 5 2 6 -4 3 -8 -5 -10 -30
-4 -56 1 -2 7 1 14 6 17 13 52 10 50 -5 -4 -17 30 -49 47 -44 7 3 10 0 7 -5
-3 -5 7 -17 24 -27 16 -9 29 -14 29 -11 0 3 9 1 20 -5 11 -6 18 -15 15 -21 -4
-5 2 -9 13 -9 10 0 38 -14 62 -31 23 -17 39 -26 36 -20 -4 7 -1 8 8 5 9 -3 16
-14 16 -23 0 -25 10 -32 31 -20 13 7 19 6 19 -1 0 -6 5 -8 10 -5 6 3 10 4 10
1 0 -7 -94 -50 -97 -45 -1 2 -8 -5 -16 -15 -9 -12 -20 -17 -31 -13 -9 4 -15 3
-11 -2 5 -9 -45 -51 -60 -51 -4 0 -14 -8 -21 -17 -11 -15 -13 -15 -14 -3 -1
12 -3 12 -14 -3 -10 -13 -21 -15 -45 -11 -18 4 -35 13 -38 20 -3 8 -9 11 -14
8 -5 -3 -9 0 -9 5 0 6 -5 11 -11 11 -7 0 -20 10 -30 22 -13 14 -19 16 -19 7 0
-9 -3 -10 -8 -3 -11 16 -108 54 -138 54 l-27 0 6 203 c6 204 28 473 48 602 6
39 13 103 16 143 2 39 9 72 14 72 12 0 12 37 -1 45 -12 7 -13 45 -2 45 5 0 7
15 6 33 -3 29 -3 30 5 7 7 -18 9 -20 10 -7 1 10 -3 27 -9 37 -6 12 -6 44 1 97
6 43 12 96 13 119 2 67 11 72 139 73 62 1 152 10 202 20 122 25 125 25 125 -1z
m-6306 -19 c48 -17 86 -32 86 -34 0 -14 -71 -155 -78 -155 -7 0 -119 181 -130
211 -7 17 37 9 122 -22z m6748 -1416 c22 -20 23 -35 3 -73 -13 -25 -22 -30
-53 -30 -92 0 -241 -40 -347 -93 -206 -102 -344 -252 -486 -527 -18 -36 -69
-123 -111 -194 -96 -160 -121 -224 -115 -289 6 -63 42 -102 116 -124 71 -20
211 -13 303 16 81 26 205 107 252 164 82 101 101 143 261 592 32 88 88 223
125 300 38 77 71 152 75 168 4 15 11 30 16 32 11 7 46 -62 58 -116 9 -39 6
-50 -34 -138 -49 -107 -126 -310 -205 -536 -79 -226 -127 -313 -230 -415 -90
-91 -151 -127 -285 -172 -61 -20 -89 -23 -215 -23 -126 1 -152 4 -201 23 -163
65 -223 185 -170 336 23 66 256 478 356 631 174 264 426 432 725 480 95 15
135 13 162 -12z m-101 -183 c-1 -19 -7 -43 -12 -52 -7 -14 -6 -18 6 -18 8 0
15 -7 15 -16 0 -14 -3 -14 -15 -4 -12 10 -15 9 -16 -6 -3 -54 -9 -84 -27 -129
-22 -55 -37 -66 -45 -35 -4 14 1 25 14 33 10 6 19 15 19 20 0 4 -53 6 -118 5
l-119 -3 3 -25 c3 -39 4 -40 13 -40 5 0 7 14 6 30 -2 23 0 28 10 20 6 -5 16
-6 20 -2 5 4 5 2 2 -5 -6 -10 11 -11 33 -3 3 1 9 2 13 1 5 -1 5 4 1 10 -4 7
-3 9 4 6 13 -9 9 -42 -6 -42 -7 0 -12 -3 -12 -7 0 -5 2 -7 4 -5 2 1 12 -5 22
-14 21 -17 51 -19 74 -4 13 7 13 6 2 -7 -10 -13 -10 -17 0 -21 7 -3 -3 -4 -22
-2 -19 1 -40 -2 -47 -7 -7 -5 -14 -5 -18 2 -5 8 -11 8 -21 -1 -8 -6 -15 -9
-15 -5 -1 3 -2 12 -3 19 -1 6 -8 11 -15 9 -7 -1 -9 2 -6 9 5 7 1 10 -11 7 -29
-5 -24 -42 6 -46 14 -2 30 -8 37 -13 7 -7 14 -6 18 1 5 8 10 8 20 0 10 -8 15
-8 20 0 5 8 11 8 19 1 7 -6 16 -8 20 -4 3 4 13 8 21 9 16 2 12 -9 -13 -38 -7
-9 -11 -22 -7 -27 3 -6 1 -11 -4 -11 -14 0 -14 23 -1 36 7 7 6 11 -5 11 -8 0
-15 -8 -15 -18 0 -10 -9 -21 -20 -24 -34 -11 -22 -24 18 -19 20 2 33 1 27 -3
-5 -5 -12 -17 -13 -28 -2 -11 -8 -24 -13 -29 -5 -6 -9 -19 -9 -30 0 -18 -2
-19 -11 -6 -8 12 -9 11 -5 -5 3 -11 -5 -52 -19 -90 -18 -53 -29 -70 -44 -71
-35 -2 -47 12 -35 43 6 16 9 51 8 78 -4 63 9 83 17 25 l6 -45 1 43 c2 31 6 42
18 42 14 0 16 -9 12 -51 -3 -29 -2 -45 3 -37 5 7 9 28 9 46 0 23 7 40 23 53
12 10 16 18 10 19 -7 0 -13 7 -13 15 0 8 -5 15 -11 15 -6 0 -9 12 -7 28 2 19
8 27 21 26 9 -1 17 5 17 12 0 11 -5 12 -18 5 -13 -7 -23 -6 -30 1 -16 16 -28
2 -14 -15 14 -17 11 -57 -4 -57 -7 0 -11 12 -9 29 1 16 -1 35 -6 43 -6 8 -9
-2 -9 -29 0 -24 -4 -43 -9 -43 -5 0 -12 -12 -14 -27 -3 -21 -4 -17 -6 13 0 22
-6 45 -12 51 -7 7 -12 30 -12 52 0 22 -3 38 -7 36 -4 -3 -10 4 -13 15 -3 13 0
20 9 20 8 0 14 5 14 10 0 6 -9 10 -20 10 -10 0 -25 10 -31 23 -6 12 -27 42
-47 65 -27 35 -32 46 -21 52 7 5 16 5 19 1 5 -9 50 4 50 15 0 3 -10 4 -21 1
-13 -3 -18 -2 -13 3 5 5 15 10 23 12 8 2 22 10 31 19 20 18 156 77 200 85 26
6 30 4 25 -12 -4 -13 -2 -12 6 3 13 25 31 32 74 30 28 -2 30 -4 26 -37z m451
18 c8 -7 35 -62 58 -123 24 -60 70 -166 102 -234 32 -68 56 -127 53 -130 -8
-8 -129 114 -198 199 -33 41 -75 106 -94 145 -46 96 -44 138 7 148 45 8 56 7
72 -5z m215 -23 c95 -20 175 -49 252 -91 244 -135 379 -313 331 -438 -12 -33
-61 -62 -128 -78 l-53 -11 -85 84 c-144 142 -298 337 -403 512 -22 36 -22 37
-2 37 11 0 50 -7 88 -15z m-1084 -207 c70 -118 105 -290 93 -458 -7 -105 -20
-151 -51 -189 -14 -16 -25 -31 -25 -34 0 -2 14 -10 30 -17 17 -7 30 -16 30
-20 0 -14 -100 -98 -159 -134 -77 -47 -186 -76 -286 -76 -132 1 -205 48 -205
135 0 46 61 181 125 275 20 30 55 89 78 130 63 118 137 240 181 300 53 72 126
150 141 150 6 0 28 -28 48 -62z m1071 5 c14 -20 22 -41 19 -46 -3 -6 -1 -7 4
-4 6 4 32 -21 58 -54 26 -33 97 -112 159 -176 l111 -116 -50 7 c-65 8 -128 32
-192 72 -47 30 -56 42 -103 140 -28 58 -49 113 -46 121 3 8 2 12 -3 9 -10 -6
-25 24 -16 32 3 3 5 0 5 -6 0 -7 5 -12 10 -12 7 0 7 6 0 19 -13 26 -13 34 2
25 8 -5 9 -2 5 9 -11 30 12 18 37 -20z m-471 -210 c-5 -12 -2 -15 10 -10 11 4
17 1 17 -6 0 -7 12 -38 26 -68 15 -30 28 -61 29 -69 2 -8 4 -17 6 -20 1 -3 2
-14 3 -25 1 -11 6 -19 13 -18 7 2 25 -19 40 -45 44 -76 164 -221 250 -302 119
-112 163 -150 173 -150 5 0 17 -14 27 -30 9 -17 24 -32 33 -35 8 -3 36 -24 62
-47 26 -24 64 -56 84 -73 19 -16 52 -45 72 -62 20 -18 40 -33 43 -33 3 0 19
-11 34 -24 16 -14 47 -34 69 -46 23 -12 66 -39 96 -61 55 -41 55 -41 20 -35
-19 4 -62 9 -95 11 -33 3 -67 8 -75 12 -8 3 -26 7 -40 8 -94 9 -294 61 -421
110 -150 59 -163 68 -205 137 -60 101 -123 187 -202 277 -48 56 -72 92 -70
105 1 12 0 26 -4 31 -3 6 -9 30 -13 54 -5 31 -4 42 4 37 6 -4 11 0 11 9 0 10
-5 13 -12 9 -7 -5 -9 -2 -5 8 3 9 2 19 -3 24 -19 19 -10 285 12 327 11 22 19
22 11 0z m879 -368 l147 0 113 -85 c62 -47 181 -127 263 -178 83 -51 157 -97
165 -103 8 -5 42 -24 75 -42 33 -19 127 -73 208 -120 81 -48 185 -106 230
-129 105 -53 169 -89 164 -94 -2 -2 -41 5 -88 16 -80 18 -380 84 -464 101
-163 33 -373 99 -555 176 -104 43 -121 54 -175 112 -111 119 -160 179 -229
280 -54 80 -56 83 -29 75 15 -5 94 -9 175 -9z"/>
<path d="M17240 10730 c8 -5 12 -10 10 -12 -62 -40 -117 -58 -178 -60 l-67 -1
58 -6 c31 -3 57 -9 57 -13 0 -5 -3 -22 -7 -39 -5 -28 -9 -30 -36 -25 l-30 6
27 -21 c20 -15 26 -29 26 -57 0 -49 31 -157 71 -243 18 -38 30 -72 27 -74 -5
-5 -62 25 -159 84 -44 26 -247 118 -382 172 -132 53 -473 156 -483 146 -3 -2
31 -14 73 -26 329 -92 622 -211 858 -346 120 -69 133 -79 164 -131 99 -165
307 -361 547 -517 118 -76 253 -151 260 -144 3 2 -39 28 -92 57 -265 143 -520
352 -659 541 -63 86 -141 235 -175 337 -45 136 -39 258 17 302 36 28 95 43
127 30 14 -5 26 -7 26 -5 0 6 -78 55 -87 55 -5 0 -1 -4 7 -10z"/>
<path d="M16436 9610 c11 -14 67 -77 125 -140 389 -428 644 -760 942 -1227
208 -326 296 -486 432 -783 144 -315 480 -960 636 -1222 219 -364 615 -934
627 -899 3 10 -49 83 -119 164 -99 115 -388 561 -584 902 -160 278 -443 830
-432 842 3 3 50 -33 104 -79 108 -93 183 -152 183 -145 0 2 -46 42 -102 89
-184 151 -222 191 -261 272 -51 107 -51 107 13 127 l55 18 -60 -5 -61 -5 -69
143 c-68 142 -99 197 -270 478 -169 279 -353 537 -599 843 -152 190 -491 574
-552 627 l-29 25 21 -25z"/>
<path d="M18096 9411 c5 -5 74 -42 154 -83 307 -159 589 -307 631 -333 24 -15
101 -73 171 -129 92 -72 130 -110 137 -131 7 -24 9 -16 10 47 l1 77 -52 23
c-101 43 -493 243 -613 313 -58 34 -434 225 -442 225 -4 0 -3 -4 3 -9z"/>
<path d="M7945 8875 c24 -40 186 -263 254 -350 73 -93 307 -326 405 -404 98
-77 226 -164 232 -158 3 3 -31 30 -75 61 -265 186 -546 475 -766 791 -53 76
-79 108 -50 60z"/>
<path d="M8000 8597 c0 -12 141 -288 201 -392 101 -176 312 -478 416 -596 176
-199 344 -377 429 -455 243 -222 456 -377 647 -470 31 -15 57 -31 57 -35 0 -4
-15 -10 -32 -12 -18 -2 -3 -5 35 -5 37 -1 67 0 67 2 0 2 -51 29 -112 59 -416
200 -956 711 -1325 1254 -121 179 -212 331 -310 518 -40 77 -73 136 -73 132z"/>
<path d="M11010 8570 c33 -25 312 -150 415 -185 281 -95 579 -110 800 -39 44
14 95 34 113 44 29 18 32 18 32 2 1 -23 29 26 30 50 0 14 -12 10 -61 -22 -103
-66 -196 -93 -359 -104 -226 -15 -553 64 -845 205 -145 70 -157 74 -125 49z"/>
<path d="M15915 8405 c34 -61 316 -487 377 -570 142 -193 373 -497 410 -539
24 -28 95 -111 160 -185 64 -75 196 -217 295 -317 98 -99 147 -147 108 -105
-38 41 -83 89 -100 106 -71 74 -378 418 -435 488 -14 17 -39 47 -56 67 -17 19
-57 71 -90 114 -32 44 -76 102 -97 130 -124 165 -389 544 -477 681 -106 166
-144 217 -95 130z"/>
<path d="M9065 8223 c6 -5 55 -45 109 -89 362 -289 785 -507 1301 -670 l110
-35 -90 5 c-96 5 -392 57 -604 106 -203 47 -363 96 -533 164 -87 35 -158 61
-158 59 0 -9 148 -72 274 -117 166 -60 564 -161 756 -192 108 -17 328 -44 364
-44 62 0 65 -15 9 -44 -60 -30 -196 -126 -190 -133 3 -2 16 2 29 10 12 8 68
38 122 67 71 38 97 47 92 35 -4 -11 11 -3 40 20 33 27 58 39 88 42 52 6 60 13
13 13 -20 0 -37 3 -37 6 0 4 15 27 34 53 33 45 96 148 96 156 0 3 -39 5 -87 5
-276 1 -777 123 -1166 284 -139 58 -409 198 -512 266 -51 34 -73 46 -60 33z
m392 -227 c188 -95 308 -144 496 -205 122 -40 379 -108 442 -118 61 -9 62 -12
20 -49 l-40 -35 49 32 c53 35 75 37 206 20 41 -6 104 -11 140 -11 91 0 96 -6
59 -66 -62 -97 -99 -134 -133 -134 -66 0 -366 85 -366 103 0 6 10 22 23 36 20
23 20 23 -12 -3 -36 -29 -52 -29 -116 -2 -16 8 -64 26 -105 41 -110 40 -457
213 -596 297 -167 100 -271 178 -239 178 3 0 80 -38 172 -84z"/>
<path d="M11646 7788 c-2 -7 -9 -41 -15 -76 -7 -34 -27 -98 -46 -142 -33 -77
-33 -106 1 -55 18 28 31 30 69 13 29 -13 32 -30 10 -48 -9 -7 -14 -19 -11 -26
2 -7 -4 -20 -15 -30 -11 -10 -17 -24 -15 -31 3 -7 4 -13 1 -13 -2 0 -68 -13
-147 -29 -79 -17 -215 -44 -303 -61 -136 -26 -304 -67 -284 -69 3 -1 98 15
210 34 322 55 608 86 864 94 263 9 285 14 485 117 97 51 212 135 200 148 -3 3
-35 -4 -70 -15 -87 -27 -215 -33 -400 -19 -85 6 -244 14 -352 17 -145 4 -198
9 -198 18 0 16 38 164 45 175 4 6 -1 10 -10 10 -8 0 -17 -6 -19 -12z"/>
<path d="M11509 7751 c-26 -9 -53 -21 -60 -27 -21 -18 -105 -44 -204 -64 -49
-10 -80 -19 -67 -19 34 -1 209 38 270 61 29 11 57 18 64 16 6 -2 -15 -32 -47
-66 -47 -51 -63 -62 -89 -62 -73 0 -357 -52 -422 -77 -15 -6 -16 0 -10 45 4
29 9 59 12 67 4 9 0 15 -10 15 -11 0 -16 -9 -16 -28 0 -24 -23 -121 -47 -196
-10 -32 16 -8 31 28 13 30 21 35 95 55 51 14 95 20 118 16 21 -3 30 -2 21 2
-9 5 36 9 100 11 l117 3 45 38 c24 21 75 75 113 120 73 87 71 92 -14 62z"/>
<path d="M18965 7669 c-125 -8 -179 -14 -433 -49 -162 -22 -391 -65 -401 -76
-3 -3 8 -4 24 0 227 46 668 101 893 112 83 4 152 11 152 15 0 10 -64 10 -235
-2z"/>
<path d="M6950 7213 c0 -9 79 -93 197 -210 159 -157 357 -297 555 -391 54 -25
76 -52 44 -52 -8 0 -17 -4 -20 -8 -3 -5 20 -7 50 -4 44 4 71 -2 137 -26 98
-37 328 -107 377 -116 52 -9 32 -2 -155 54 -295 89 -529 200 -758 359 -58 41
-154 127 -259 232 -93 92 -168 165 -168 162z"/>
<path d="M6621 6991 c-2 -51 102 -350 160 -464 17 -32 46 -83 65 -113 19 -30
33 -54 30 -54 -2 0 -23 19 -45 43 -62 64 -134 172 -206 309 -36 68 -65 120
-65 117 0 -3 10 -32 23 -65 53 -133 183 -330 278 -420 103 -96 209 -174 239
-174 20 0 10 18 -15 24 -37 9 -152 130 -218 228 -90 134 -179 339 -227 523
-10 39 -19 59 -19 46z"/>
<path d="M4532 6815 c-1 -38 -5 -164 -7 -280 -3 -115 -10 -289 -15 -385 -6
-96 -14 -259 -20 -362 -9 -177 -12 -196 -55 -340 -132 -455 -250 -747 -429
-1058 -89 -153 -117 -193 -267 -375 -203 -246 -348 -340 -555 -364 -125 -13
-333 18 -376 56 -15 14 -18 14 -18 1 0 -24 110 -113 270 -218 36 -23 77 -51
92 -61 15 -11 43 -19 63 -19 34 0 31 3 -48 43 -97 50 -205 120 -262 171 -45
40 -36 44 41 21 79 -25 217 -30 304 -11 245 52 484 277 739 693 194 318 328
631 456 1071 22 72 42 132 45 132 8 0 52 -172 53 -210 0 -20 -26 -110 -60
-205 -151 -422 -233 -745 -250 -985 l-6 -95 -91 -90 c-54 -53 -102 -112 -118
-144 -16 -29 -28 -55 -28 -58 0 -3 25 30 56 73 31 44 68 92 82 107 35 37 82
71 89 64 3 -3 9 -129 14 -279 8 -251 17 -380 35 -474 l7 -36 -59 7 c-33 4 -61
12 -63 18 -12 34 -52 57 -95 57 -54 0 -65 13 -92 105 -16 58 -16 156 1 265 l5
35 -17 -40 c-23 -55 -22 -209 1 -289 9 -32 15 -60 12 -63 -3 -3 -38 6 -78 21
-86 31 -272 76 -308 75 -14 0 15 -9 64 -19 188 -40 331 -96 319 -127 -5 -13
-3 -13 23 0 51 26 92 30 119 13 32 -21 31 -33 0 -58 -30 -24 -62 -83 -73 -135
-7 -35 -13 -41 -82 -75 -96 -47 -84 -48 28 -2 74 31 102 37 184 41 l98 5 11
-28 c36 -89 12 -231 -67 -393 -55 -115 -125 -213 -207 -286 -127 -115 -498
-343 -641 -393 -92 -33 -175 -33 -236 -2 -42 21 -44 21 -27 3 22 -25 81 -43
139 -43 91 0 198 45 432 184 337 199 462 322 572 561 48 104 75 215 73 298 -1
37 0 70 3 72 3 3 20 -41 38 -97 49 -156 105 -293 162 -393 28 -49 67 -122 88
-161 132 -252 317 -444 630 -655 36 -24 67 -46 70 -50 3 -3 48 -27 100 -52
122 -58 308 -117 385 -123 33 -2 96 -8 140 -13 44 -5 145 -8 225 -6 352 10
618 92 798 246 115 99 247 291 293 427 24 72 21 103 -6 53 -45 -87 -167 -185
-311 -251 -130 -59 -326 -75 -532 -44 -98 14 -284 65 -307 84 -6 5 -36 18 -68
30 -41 15 -57 26 -53 36 4 10 -3 14 -27 14 -52 0 -176 68 -304 167 -165 127
-344 366 -510 679 l-53 101 117 38 c208 68 383 169 544 315 83 75 207 232 229
290 7 19 16 38 20 43 3 4 42 -13 86 -38 87 -50 186 -84 267 -91 51 -4 51 -4
-15 11 -155 35 -335 136 -468 261 -88 83 -163 175 -259 313 -39 57 -71 101
-71 98 0 -12 82 -140 131 -205 27 -36 47 -72 45 -78 -3 -8 1 -11 9 -8 7 3 18
-3 24 -13 12 -24 144 -153 193 -190 47 -35 45 -48 -20 -157 -131 -220 -434
-446 -721 -537 -55 -17 -106 -29 -114 -26 -25 9 -95 188 -131 332 -44 180 -49
212 -41 279 6 45 11 56 29 59 21 4 21 4 -1 6 -20 1 -22 5 -18 54 4 49 4 48
-10 -18 -22 -104 -30 -367 -16 -525 29 -325 113 -693 222 -968 51 -127 181
-299 318 -419 126 -110 140 -109 26 4 -101 99 -193 207 -255 298 -129 189
-301 877 -300 1201 0 69 4 113 9 104 5 -8 18 -58 31 -110 59 -249 278 -655
505 -938 71 -87 217 -213 326 -279 168 -103 411 -199 574 -228 235 -41 461
-24 611 45 116 53 213 127 256 194 4 6 10 8 13 5 11 -11 -36 -104 -103 -204
-103 -154 -213 -253 -347 -315 -303 -139 -823 -163 -1155 -53 -337 112 -725
400 -905 673 -85 128 -229 389 -254 458 -11 32 -42 121 -70 199 -46 130 -65
197 -105 373 -26 116 -39 387 -32 645 8 278 11 331 32 440 42 216 78 341 285
973 49 150 89 278 88 285 0 15 -42 -99 -63 -175 -9 -31 -20 -59 -25 -63 -25
-15 -33 219 -23 655 4 206 5 488 2 625 -3 138 -7 219 -8 180z m-260 -3643 c11
-11 42 -141 36 -148 -3 -2 -21 3 -41 11 -40 17 -122 19 -179 6 -36 -8 -38 -8
-38 16 0 29 24 79 54 112 19 21 26 23 90 18 38 -4 73 -10 78 -15z"/>
<path d="M7240 6283 c0 -4 25 -50 55 -102 30 -51 55 -95 55 -97 0 -2 -12 -4
-27 -4 -42 -1 -9 -16 52 -26 l50 -7 -34 29 c-32 27 -91 108 -91 126 0 4 19 -1
43 -11 80 -34 211 -53 219 -32 2 6 41 21 88 34 74 22 134 34 330 68 33 6 21 7
-45 4 -109 -4 -217 -25 -351 -70 -97 -32 -104 -33 -155 -21 -69 16 -110 38
-154 82 -19 19 -35 31 -35 27z"/>
<path d="M5950 5974 c-12 -26 -37 -102 -56 -167 -20 -65 -44 -140 -55 -165
-51 -118 -165 -546 -190 -709 -7 -46 -16 -83 -20 -83 -4 0 -10 53 -13 118 -9
155 -13 181 -15 100 -3 -166 20 -422 51 -547 87 -359 221 -605 416 -764 112
-92 236 -154 353 -178 83 -16 89 -23 29 -29 -50 -6 -47 -7 30 -8 47 0 105 3
130 7 42 6 39 7 -54 19 -119 15 -257 59 -340 109 -63 38 -195 138 -197 151 -1
4 -3 48 -4 97 -3 109 -26 211 -62 277 -27 50 -69 88 -96 88 -8 0 -20 7 -27 15
-9 11 -6 21 15 50 15 19 37 37 49 39 181 35 247 55 372 112 6 3 20 -26 33 -71
27 -93 90 -241 143 -339 66 -119 62 -98 -7 39 -35 72 -83 186 -106 255 l-41
125 39 30 c82 63 151 144 172 200 29 78 36 151 18 200 -13 35 -13 45 -1 68 15
28 12 31 -21 18 -14 -6 -31 -1 -55 15 -81 54 -161 65 -278 40 -152 -33 -307
-152 -380 -293 -42 -82 -92 -227 -92 -268 0 -51 -19 -32 -34 34 -36 156 -4
398 99 766 42 151 201 644 216 668 6 11 8 21 5 24 -3 3 -15 -16 -26 -43z m438
-915 c48 -24 63 -46 41 -61 -11 -8 -10 -9 4 -4 41 13 67 18 67 12 0 -3 -34
-72 -76 -152 -42 -80 -74 -147 -71 -150 5 -5 62 93 107 184 15 29 29 49 33 46
24 -25 -6 -177 -48 -244 -50 -80 -209 -182 -355 -228 -151 -48 -354 -68 -380
-37 -23 28 19 224 70 325 36 71 112 159 183 213 89 68 101 74 190 97 99 26
179 25 235 -1z m-478 -826 c52 -59 68 -106 80 -242 5 -68 8 -126 5 -129 -9
-10 -45 31 -99 112 -77 117 -76 114 -59 160 9 26 13 59 9 89 -4 41 -3 47 13
47 11 0 34 -17 51 -37z"/>
<path d="M4936 5782 c-16 -26 -38 -219 -43 -378 -7 -230 -4 -242 78 -278 48
-21 176 -45 240 -46 7 0 21 -67 25 -120 2 -31 62 -217 63 -197 1 5 -15 72 -34
150 -19 78 -35 149 -35 158 0 9 14 22 30 29 17 7 30 19 30 27 0 9 -20 46 -45
83 -50 75 -60 113 -75 275 l-9 100 5 -125 5 -125 -41 65 c-53 85 -122 228
-150 313 -23 68 -34 85 -44 69z m35 -90 c34 -106 159 -340 262 -490 63 -92 59
-97 -66 -97 -112 1 -229 33 -249 68 -24 41 -10 450 18 550 8 25 21 13 35 -31z"/>
<path d="M6675 4790 c6 -102 49 -351 85 -487 41 -157 76 -252 138 -373 104
-202 122 -222 473 -546 317 -292 455 -554 489 -929 9 -89 9 -89 5 30 -7 220
-86 437 -230 630 -76 101 -79 109 -89 184 -8 59 -55 197 -80 233 -22 32 -20
19 9 -46 29 -67 65 -190 65 -225 0 -21 -19 -7 -127 99 -71 68 -172 167 -226
220 -161 155 -263 304 -337 487 -69 173 -125 400 -151 613 -19 153 -29 199
-24 110z"/>
<path d="M5153 4752 c-113 -268 -218 -659 -238 -880 -3 -32 4 -9 15 53 25 136
66 310 80 335 19 35 231 105 361 119 l66 7 23 -43 c42 -79 30 -39 -17 57 -25
52 -68 154 -94 225 -27 72 -48 125 -49 118 0 -14 57 -173 94 -260 14 -34 26
-66 26 -71 0 -4 -51 -14 -112 -21 -62 -6 -147 -18 -188 -25 -41 -7 -76 -9 -78
-5 -6 15 40 163 100 323 32 87 58 160 56 162 -3 2 -23 -40 -45 -94z"/>
<path d="M7060 3474 c0 -6 12 -21 26 -35 52 -47 179 -206 241 -301 106 -161
189 -363 177 -431 -4 -22 -3 -28 4 -18 13 18 18 8 36 -80 64 -310 35 -696 -80
-1069 -87 -279 -236 -582 -425 -860 -62 -91 -107 -142 -218 -248 -78 -74 -179
-182 -225 -240 -47 -59 -107 -124 -136 -146 -28 -21 -48 -41 -46 -44 9 -8 144
105 255 212 246 239 447 518 616 856 220 439 317 844 302 1263 -7 193 -35 343
-93 502 -55 149 -124 272 -238 425 -83 112 -196 235 -196 214z"/>
<path d="M3142 3259 c-85 -4 -155 -9 -158 -12 -2 -2 83 -2 190 1 215 5 354 -6
514 -42 91 -21 172 -57 172 -78 0 -17 -80 -58 -142 -73 -36 -8 -129 -35 -206
-60 -77 -25 -155 -45 -173 -45 -22 0 -29 -3 -21 -9 9 -5 -4 -15 -45 -31 -32
-13 -85 -37 -118 -53 -50 -24 -54 -27 -25 -22 76 13 121 28 109 36 -15 9 -17
8 150 70 96 36 200 69 261 82 l25 6 -24 -20 c-13 -10 -21 -19 -18 -19 11 0
143 64 179 86 22 14 42 23 45 21 2 -3 0 -22 -6 -44 -6 -21 -11 -55 -11 -75 0
-37 -2 -39 -71 -74 -39 -19 -69 -37 -67 -39 2 -3 42 16 88 40 47 24 79 45 71
45 -21 0 -6 102 25 170 14 30 20 49 13 43 -10 -10 -19 -8 -43 7 -68 41 -294
86 -476 93 -47 2 -154 0 -238 -4z"/>
<path d="M4045 2876 c-55 -23 -125 -57 -155 -76 -30 -18 -128 -70 -217 -116
-88 -45 -191 -101 -227 -124 -64 -41 -81 -55 -51 -44 8 4 15 1 15 -6 0 -7 25
9 55 35 34 28 128 84 240 141 101 52 187 94 190 94 15 0 -101 -122 -220 -229
-189 -172 -206 -188 -145 -140 74 59 243 212 358 323 51 50 103 96 115 103 45
25 130 54 138 46 4 -4 -3 -44 -16 -88 -13 -44 -22 -81 -20 -83 2 -2 15 32 29
75 25 76 34 134 19 132 -5 -1 -53 -20 -108 -43z"/>
<path d="M9800 2091 c19 -18 58 -44 86 -60 132 -71 312 -225 391 -334 80 -110
95 -128 100 -124 2 3 -1 33 -6 68 -6 34 -9 65 -7 67 2 2 17 -18 32 -45 15 -26
60 -95 99 -153 39 -58 107 -168 150 -245 43 -77 99 -174 125 -215 84 -133 275
-519 308 -625 18 -55 37 -137 42 -182 5 -45 18 -99 28 -120 11 -21 25 -57 32
-81 9 -28 19 -42 31 -42 16 0 16 4 3 47 -8 26 -23 66 -34 88 -11 23 -20 55
-20 71 -2 147 -128 463 -302 756 -63 106 -140 240 -172 298 -31 58 -91 152
-132 210 -41 58 -103 149 -137 203 -34 53 -65 97 -69 97 -5 0 -8 -24 -9 -52
l0 -53 -37 45 c-93 112 -297 276 -423 340 -24 13 -60 34 -79 48 l-35 24 35
-31z"/>
<path d="M7220 1993 c-110 -184 -275 -404 -458 -610 -176 -198 -505 -471 -977
-808 -224 -161 -296 -215 -264 -198 9 4 57 37 108 73 476 337 726 525 884 666
64 58 117 101 117 96 0 -8 -53 -88 -233 -348 -93 -134 -98 -141 -313 -432 -74
-101 -131 -181 -126 -178 5 3 63 77 127 163 128 172 164 215 175 208 4 -2 40
47 81 110 41 64 114 173 162 243 49 70 115 172 147 227 33 55 89 134 126 175
174 196 377 472 473 643 51 89 29 67 -29 -30z"/>
<path d="M8740 2019 c0 -21 27 -45 72 -64 30 -12 38 -21 44 -52 4 -21 22 -53
44 -77 30 -33 39 -52 44 -96 14 -106 72 -198 160 -255 28 -18 63 -46 78 -61
25 -27 26 -34 21 -91 -3 -35 -10 -63 -15 -63 -5 0 -6 -30 -2 -72 4 -40 7 -77
7 -83 -12 -310 -21 -437 -38 -531 -31 -158 -133 -391 -214 -486 -40 -47 -39
-48 -82 80 -17 51 -33 92 -34 90 -2 -2 7 -51 21 -108 14 -58 27 -115 30 -128
8 -42 38 -24 94 59 60 89 55 90 86 -18 11 -40 22 -63 32 -63 9 0 12 6 7 18 -3
9 -15 57 -26 105 l-19 89 33 69 c17 38 34 69 38 69 3 0 15 -24 28 -54 24 -60
179 -301 187 -293 3 2 -21 45 -52 93 -32 49 -75 127 -97 174 -49 103 -51 139
-14 295 19 79 28 153 33 262 l7 153 35 -83 c19 -45 42 -103 52 -128 48 -120
178 -305 319 -454 132 -139 245 -266 263 -295 7 -11 23 -20 36 -20 20 0 21 3
12 20 -16 30 -108 134 -255 290 -134 142 -181 197 -173 205 3 3 22 -1 44 -9
61 -21 240 -58 266 -54 18 2 7 15 -67 71 -158 119 -283 280 -326 419 -29 91
-23 91 25 2 24 -45 63 -110 87 -145 57 -84 195 -227 289 -299 188 -145 385
-350 445 -463 11 -20 25 -37 32 -37 18 0 17 6 -16 64 -73 126 -216 273 -465
476 -65 53 -184 179 -237 250 -81 110 -169 294 -184 385 l-6 40 21 -28 c25
-31 69 -57 98 -57 35 0 70 -39 119 -132 103 -196 294 -348 568 -451 106 -41
266 -176 280 -237 3 -14 -1 -58 -10 -98 -16 -79 -19 -131 -9 -181 l7 -31 123
0 124 0 -6 27 c-25 105 -125 298 -233 449 -23 32 -39 59 -37 61 2 3 18 -3 36
-12 18 -9 34 -14 37 -12 8 8 -60 54 -117 80 -83 37 -315 172 -404 236 -91 65
-196 174 -237 246 -22 39 -41 56 -84 79 -30 15 -76 47 -102 69 -27 22 -57 48
-68 56 -19 15 -19 15 -5 -4 8 -11 25 -33 39 -48 l26 -29 -38 16 c-73 30 -211
128 -298 212 -48 46 -92 84 -98 84 -22 0 -93 75 -117 123 -14 27 -30 77 -36
110 -8 45 -17 67 -35 80 -28 22 -53 68 -53 97 0 16 7 20 33 21 28 1 26 2 -13
9 -63 11 -122 37 -142 63 -14 17 -18 18 -18 6z"/>
<path d="M15422 1596 c47 -19 211 -115 220 -130 8 -13 388 -22 388 -9 0 4 -80
25 -177 47 -98 21 -232 51 -298 67 -165 40 -175 41 -133 25z"/>
<path d="M17591 1373 c14 -15 97 -105 185 -198 87 -94 186 -201 219 -238 33
-37 64 -67 68 -67 13 0 -73 97 -275 312 -98 104 -178 193 -178 199 0 6 19 8
48 5 26 -3 107 -8 179 -11 73 -4 143 -8 155 -10 13 -2 57 -6 98 -8 55 -4 64
-3 35 3 -47 10 -247 26 -430 35 l-130 7 26 -29z"/>
<path d="M16534 1340 c-6 -6 -129 -13 -293 -17 l-284 -6 64 -32 c35 -18 118
-54 184 -79 369 -144 578 -258 845 -464 102 -78 355 -331 425 -424 38 -51 56
-67 75 -67 25 -1 25 -1 3 12 -12 6 -50 48 -85 92 -127 161 -355 373 -535 498
-187 129 -504 296 -698 367 -49 18 -112 43 -140 56 l-50 24 65 1 c36 1 88 2
115 4 211 13 384 14 430 1 54 -14 216 -115 308 -191 9 -9 63 -46 120 -83 56
-37 104 -70 105 -74 2 -5 9 -8 14 -8 11 0 65 -40 173 -125 28 -22 77 -60 110
-85 178 -137 346 -283 454 -393 67 -70 80 -87 63 -87 -5 0 -12 -23 -16 -50 -8
-61 -26 -57 -26 5 0 24 -4 46 -10 50 -20 12 -61 -9 -82 -44 l-23 -36 -3 33
c-4 40 -23 49 -67 33 -26 -9 -38 -8 -61 4 -16 8 -39 15 -50 15 -27 0 -74 -36
-74 -58 -1 -16 -2 -16 -14 1 -23 30 -38 20 -19 -14 10 -17 26 -46 35 -63 l17
-31 -6 32 c-11 65 17 113 66 113 52 0 82 -61 61 -124 -12 -38 -41 -53 -80 -43
-11 3 -20 3 -20 1 0 -13 52 -84 61 -84 7 0 5 10 -5 25 -21 32 -21 32 13 38 31
6 48 36 54 97 3 24 4 18 6 -20 2 -87 21 -99 21 -13 0 57 -3 74 -17 81 -14 8
-12 12 15 26 17 9 33 16 37 16 3 0 5 -36 5 -80 0 -63 -3 -81 -16 -88 -11 -6
-13 -12 -6 -16 7 -4 19 2 29 14 20 23 63 27 63 6 0 -8 5 -18 10 -21 6 -4 10 6
10 24 0 28 -3 30 -41 33 l-40 3 40 62 c28 43 47 63 61 63 17 0 20 -6 20 -50 0
-38 4 -50 15 -50 8 0 15 -7 15 -15 0 -8 -6 -15 -14 -15 -8 0 -18 -9 -21 -20
-3 -11 -11 -20 -16 -20 -6 0 -7 -5 -3 -12 5 -8 13 -4 25 11 l18 22 21 -21 c24
-24 76 -27 107 -5 22 15 24 15 92 -22 2 -1 -10 -13 -25 -27 -28 -25 -28 -25
-6 -26 12 0 34 7 47 16 23 15 25 15 31 0 3 -9 10 -16 15 -16 5 0 -4 18 -19 40
-17 25 -35 39 -49 40 -29 0 -53 26 -53 58 -1 38 -41 85 -70 80 -33 -4 -38 -28
-7 -28 34 0 57 -25 57 -60 0 -33 -23 -50 -67 -50 -33 0 -53 16 -53 42 0 25 26
23 33 -3 8 -31 41 -21 45 14 3 25 1 27 -32 27 -31 0 -36 3 -36 23 0 44 12 67
34 67 17 0 -2 25 -89 114 -167 173 -625 549 -826 678 -124 79 -310 213 -324
232 -6 8 -63 28 -126 45 -133 36 -122 34 -135 21z"/>
<path d="M17010 201 c0 -46 -4 -71 -11 -71 -8 0 -10 18 -7 55 3 37 1 54 -6 52
-6 -2 -11 -29 -11 -63 0 -56 1 -59 25 -59 24 0 25 2 25 68 l0 67 123 0 c117 0
124 -1 147 -25 17 -16 25 -35 25 -60 0 -54 -36 -85 -97 -85 l-49 0 4 67 c3 69
-7 101 -27 89 -15 -10 -14 -129 1 -144 9 -9 2 -12 -35 -12 -27 0 -47 -5 -47
-11 0 -9 118 -8 270 3 l45 3 2 68 c2 65 -2 73 -31 68 -5 -1 -22 11 -38 26 -29
28 -32 28 -169 31 l-139 4 0 -71z"/>
</g>
</svg>
