<?xml version="1.0" standalone="no"?>
<!DOCTYPE svg PUBLIC "-//W3C//DTD SVG 20010904//EN"
 "http://www.w3.org/TR/2001/REC-SVG-20010904/DTD/svg10.dtd">
<svg version="1.0" xmlns="http://www.w3.org/2000/svg"
 width="512.000000pt" height="512.000000pt" viewBox="0 0 512.000000 512.000000"
 preserveAspectRatio="xMidYMid meet">
<metadata>
Created by potrace 1.16, written by Peter Selinger 2001-2019
</metadata>
<g transform="translate(0.000000,512.000000) scale(0.100000,-0.100000)"
fill="#000000" stroke="none">
<path d="M1235 5108 c-62 -34 -105 -105 -136 -225 -20 -80 -45 -388 -35 -429
5 -18 -8 -48 -49 -119 -127 -215 -236 -459 -281 -625 -12 -47 -27 -84 -32 -83
-5 1 -39 5 -75 9 -57 6 -67 4 -86 -15 -14 -14 -21 -34 -21 -60 0 -51 32 -77
104 -86 29 -4 58 -10 64 -14 5 -3 16 -43 24 -87 l14 -82 -61 -32 c-87 -47 -95
-57 -95 -105 0 -80 68 -99 163 -45 l53 29 33 -56 c45 -75 142 -169 221 -215
35 -21 67 -39 72 -40 4 -2 -15 -79 -42 -173 -27 -93 -50 -180 -50 -191 0 -31
37 -74 65 -74 38 0 73 20 84 49 6 14 37 121 71 238 70 243 70 251 -9 279 -97
35 -149 66 -204 121 -101 102 -167 267 -167 418 0 166 110 452 294 763 l63
107 7 185 c7 229 30 355 73 402 14 16 18 16 44 2 58 -29 172 -206 250 -387 24
-56 42 -83 61 -93 22 -11 100 -14 416 -14 376 0 390 1 415 20 14 11 29 31 33
43 13 44 123 256 162 314 40 59 113 133 132 133 18 0 49 -63 66 -135 12 -48
18 -132 22 -265 l4 -195 70 -117 c148 -251 264 -526 289 -687 27 -178 -46
-391 -177 -511 -46 -42 -154 -100 -187 -100 -25 0 -67 -45 -67 -71 0 -12 24
-105 54 -208 184 -629 343 -1283 390 -1602 22 -148 21 -301 -2 -377 -50 -158
-178 -254 -427 -317 -49 -13 -91 -22 -92 -22 0 1 9 52 22 114 64 308 128 916
151 1429 l7 150 -28 22 c-36 28 -70 28 -99 -1 -21 -21 -24 -36 -30 -158 -30
-576 -82 -1074 -146 -1390 -42 -207 -99 -369 -130 -369 -15 0 -48 71 -74 162
-66 230 -112 686 -132 1327 -7 207 -8 216 -30 238 -30 30 -69 29 -101 -3 l-26
-26 7 -242 c14 -516 52 -948 105 -1208 l18 -88 -204 0 -205 0 5 23 c55 218
100 692 117 1212 9 304 8 317 -42 345 -25 13 -31 13 -55 0 -46 -26 -53 -52
-53 -215 -1 -305 -33 -797 -71 -1060 -34 -243 -99 -465 -134 -465 -30 0 -84
151 -124 345 -64 309 -115 765 -141 1275 -6 118 -14 230 -16 248 -12 78 -104
100 -139 33 -9 -19 -12 -50 -9 -102 44 -739 92 -1194 155 -1484 10 -49 19 -93
19 -98 0 -24 -191 28 -294 80 -162 81 -246 220 -246 404 0 152 74 542 190
1005 87 346 87 347 29 382 -22 13 -32 13 -57 3 -16 -7 -34 -23 -40 -36 -28
-62 -183 -704 -226 -935 -65 -354 -64 -544 5 -699 79 -180 287 -308 598 -367
l92 -18 20 -45 c46 -104 104 -151 185 -151 67 0 109 28 153 103 l34 57 252 0
253 0 13 -32 c17 -41 64 -95 100 -114 41 -21 115 -18 155 7 33 20 100 114 110
155 4 17 19 23 82 33 103 17 315 79 432 126 356 142 680 370 902 633 364 433
512 934 478 1615 -15 307 -22 356 -55 384 -35 30 -58 29 -96 -5 l-32 -29 12
-119 c20 -190 25 -494 12 -644 -51 -584 -309 -1060 -754 -1394 -91 -68 -267
-179 -273 -173 -2 2 4 23 12 47 9 25 21 90 27 146 l10 100 41 29 c62 45 181
161 237 231 57 72 65 116 26 152 -42 39 -74 30 -136 -40 -31 -35 -85 -92 -121
-127 l-65 -64 -7 39 c-77 434 -199 937 -372 1539 -25 88 -46 163 -46 167 0 4
27 21 60 38 75 38 179 134 231 216 l41 63 52 -30 c92 -51 166 -30 166 48 0 41
-22 63 -101 103 -53 27 -60 34 -55 53 4 12 9 50 13 84 6 68 3 65 97 79 89 13
126 85 71 139 -26 27 -57 30 -131 16 l-41 -8 -16 69 c-37 152 -143 395 -271
617 l-66 115 0 120 c-1 218 -37 406 -96 495 -51 78 -159 104 -245 60 -89 -45
-204 -198 -290 -384 l-44 -95 -321 0 -321 0 -52 108 c-96 196 -210 342 -296
378 -40 17 -131 18 -160 2z"/>
<path d="M1375 3936 c-61 -27 -95 -93 -95 -182 0 -67 20 -113 66 -154 29 -25
43 -30 84 -30 41 0 55 5 86 32 47 42 66 87 65 160 0 66 -28 128 -72 160 -34
25 -96 32 -134 14z"/>
<path d="M2629 3927 c-71 -48 -103 -138 -80 -226 23 -85 75 -131 149 -131 134
0 202 206 105 321 -52 61 -116 75 -174 36z"/>
<path d="M3961 3769 c-103 -20 -190 -85 -242 -181 -33 -61 -34 -67 -34 -168 1
-120 12 -158 122 -415 159 -371 203 -587 169 -841 -26 -197 -95 -442 -162
-576 -30 -60 -30 -93 1 -123 27 -28 70 -32 98 -11 45 34 149 319 194 531 24
115 27 152 27 325 1 276 -21 369 -188 772 -100 239 -123 324 -106 387 21 78
110 151 185 151 119 0 238 -142 310 -370 15 -47 36 -93 47 -102 45 -40 128 -8
128 48 0 30 -43 166 -75 239 -108 243 -289 371 -474 334z"/>
<path d="M1937 3696 c-85 -24 -121 -79 -97 -150 13 -40 67 -92 117 -112 l33
-14 0 -100 c0 -87 3 -103 20 -120 30 -30 83 -27 109 6 18 23 21 41 21 120 l0
93 52 28 c65 35 98 81 98 137 0 85 -52 116 -205 122 -65 3 -117 -1 -148 -10z"/>
</g>
</svg>
