<?xml version="1.0" standalone="no"?>
<!DOCTYPE svg PUBLIC "-//W3C//DTD SVG 20010904//EN"
 "http://www.w3.org/TR/2001/REC-SVG-20010904/DTD/svg10.dtd">
<svg version="1.0" xmlns="http://www.w3.org/2000/svg"
 width="474.000000pt" height="474.000000pt" viewBox="0 0 474.000000 474.000000"
 preserveAspectRatio="xMidYMid meet">
<metadata>
Created by potrace 1.16, written by Peter Selinger 2001-2019
</metadata>
<g transform="translate(0.000000,474.000000) scale(0.100000,-0.100000)"
fill="#000000" stroke="none">
<path d="M1175 4710 c-33 -17 -103 -48 -155 -71 -297 -130 -406 -205 -519
-358 -109 -147 -160 -294 -168 -486 -5 -126 -4 -136 36 -310 79 -348 151 -640
168 -678 9 -21 36 -56 60 -77 111 -97 263 -91 365 16 46 48 55 72 79 209 32
180 61 315 69 315 4 0 15 -19 26 -42 10 -23 38 -67 62 -97 24 -31 52 -73 63
-94 21 -40 38 -147 39 -239 0 -56 -2 -61 -86 -185 -89 -132 -183 -310 -225
-426 l-24 -67 -81 0 c-189 0 -329 -86 -408 -250 -45 -94 -48 -204 -11 -366 30
-127 52 -164 100 -164 34 0 65 33 65 71 0 17 -12 76 -26 132 -43 167 -25 264
63 349 50 49 124 81 190 82 28 0 55 -3 59 -7 4 -3 2 -32 -5 -64 -48 -247 -29
-567 50 -843 40 -139 67 -209 146 -367 46 -94 64 -139 60 -156 -5 -18 -25 -30
-89 -56 -143 -58 -198 -140 -185 -271 l7 -60 -141 0 c-163 0 -192 10 -210 71
-19 61 1 87 108 139 50 25 102 54 114 65 31 28 59 93 59 139 0 60 -69 338 -89
359 -26 27 -80 25 -103 -3 -24 -29 -23 -41 11 -178 28 -113 36 -157 33 -195
-2 -13 -31 -32 -95 -61 -101 -48 -135 -78 -166 -146 -48 -106 -5 -246 90 -296
82 -42 99 -44 504 -43 421 0 466 4 549 53 50 29 98 80 126 135 l19 39 77 -30
c215 -83 388 -75 629 28 6 3 18 -12 28 -33 39 -89 116 -151 223 -179 48 -12
125 -14 464 -11 294 2 415 6 443 16 50 16 116 76 138 126 24 53 24 147 0 200
-24 53 -95 114 -168 144 -76 32 -93 47 -93 85 0 27 195 855 202 861 2 1 28 10
58 20 299 97 522 303 620 574 56 153 71 239 77 442 4 127 2 197 -6 221 -26 80
-110 117 -181 81 -25 -13 -44 -36 -68 -83 -69 -133 -98 -176 -167 -246 -115
-116 -230 -185 -415 -247 -124 -42 -302 -79 -360 -75 l-41 3 -39 99 c-56 138
-112 242 -208 386 l-84 125 1 110 c2 127 21 186 89 276 23 31 55 79 70 108
l29 52 31 -148 c18 -81 36 -179 42 -218 14 -89 41 -146 92 -189 108 -92 262
-84 357 19 23 25 46 57 52 72 24 63 80 317 75 338 -9 34 -34 55 -66 55 -52 0
-67 -25 -100 -170 -35 -155 -50 -193 -84 -215 -49 -33 -129 -16 -158 33 -9 15
-24 70 -33 122 -83 482 -220 906 -435 1340 -38 79 -70 152 -70 163 0 32 38 84
71 97 38 16 66 8 269 -82 213 -95 229 -103 303 -159 82 -62 154 -149 206 -249
52 -100 70 -173 77 -305 7 -147 9 -154 47 -170 27 -11 36 -11 59 1 36 18 43
48 42 159 -5 286 -158 561 -399 718 -39 25 -147 80 -240 122 -94 42 -192 87
-219 101 -100 49 -204 26 -291 -63 l-40 -41 -117 23 c-295 60 -583 60 -873 0
l-110 -23 -35 38 c-63 69 -104 90 -179 90 -52 -1 -79 -7 -126 -30z m198 -160
c39 -43 35 -79 -19 -185 -207 -401 -376 -910 -454 -1368 -11 -65 -24 -126 -30
-137 -17 -32 -52 -50 -98 -50 -83 0 -97 20 -141 202 -17 67 -58 238 -92 378
-57 231 -62 265 -63 365 0 116 11 181 51 278 48 118 142 238 248 317 66 48 67
49 300 152 225 100 248 103 298 48z m989 -35 c51 -8 123 -22 161 -31 57 -14
67 -19 67 -38 0 -11 43 -110 95 -218 124 -255 255 -593 255 -655 0 -44 -60
-266 -82 -302 -12 -20 -35 -52 -51 -70 -75 -87 -116 -227 -117 -390 0 -184
-92 -364 -245 -480 -73 -55 -185 -106 -257 -116 l-48 -7 0 190 0 189 38 25
c34 23 114 139 204 296 32 55 37 122 13 179 -20 48 -41 71 -87 94 -33 17 -61
19 -246 19 l-208 0 -45 -29 c-61 -38 -93 -104 -87 -177 4 -43 17 -71 88 -183
94 -151 120 -184 161 -208 l29 -17 0 -183 c0 -212 3 -206 -92 -179 -110 31
-197 82 -284 170 -126 126 -184 266 -184 447 0 158 -33 258 -123 373 -54 69
-76 122 -108 262 l-22 102 27 83 c49 149 153 400 236 574 45 93 84 184 87 202
5 30 9 33 72 47 253 57 518 67 753 31z m-112 -1474 c17 -33 12 -46 -51 -148
-64 -102 -76 -120 -66 -91 5 14 2 17 -15 14 -12 -1 -24 -9 -26 -17 -3 -11 -2
-12 6 -1 8 11 10 11 15 -1 4 -10 0 -14 -10 -13 -9 2 -20 11 -24 22 -8 20 -10
13 -13 -50 -2 -29 -22 -30 -44 -1 -20 25 -20 55 -1 55 13 0 11 -18 -2 -22 -7
-2 -6 -8 3 -15 11 -10 14 -7 13 15 0 21 -5 27 -22 28 -12 1 -20 -3 -17 -7 3
-5 3 -9 -1 -9 -3 0 -14 14 -25 32 -18 30 -18 33 -2 52 16 18 16 18 -5 7 -19
-10 -24 -8 -38 13 -10 15 -14 33 -10 46 3 11 2 20 -3 20 -6 0 -12 -5 -14 -10
-2 -6 -9 0 -17 12 -13 21 -13 22 2 9 18 -14 22 -5 11 23 -3 9 -11 13 -17 9 -6
-4 -7 -1 -2 8 22 38 25 39 196 39 156 0 169 -1 179 -19z m2011 -638 c-13 -172
-38 -270 -100 -398 -79 -160 -196 -275 -368 -361 l-88 -44 -6 93 c-10 135 -37
204 -115 287 l-44 47 92 33 c273 97 486 261 603 465 37 63 39 53 26 -122z
m-2936 18 c-3 -5 0 -13 6 -16 5 -4 8 -13 5 -20 -5 -14 27 -49 37 -39 3 3 11
-4 17 -16 10 -18 9 -24 -1 -31 -11 -7 -9 -9 6 -9 17 0 17 -2 5 -10 -8 -5 -11
-10 -7 -10 4 0 19 7 32 16 14 9 25 12 26 8 1 -5 4 2 8 15 6 23 7 23 24 7 11
-11 15 -26 12 -37 -4 -10 -2 -19 3 -19 6 0 12 5 14 12 2 6 18 -2 39 -21 33
-32 22 -34 -13 -3 -10 8 -18 11 -18 6 0 -4 12 -19 28 -32 l27 -23 -25 6 c-19
5 -22 4 -10 -4 13 -9 13 -11 1 -11 -11 0 -9 -4 5 -15 10 -8 15 -14 9 -15 -15
0 -36 16 -34 26 4 23 -3 32 -33 39 -18 4 -39 7 -46 6 -16 -2 -11 21 8 36 13
10 11 11 -7 7 -25 -7 -38 -33 -23 -48 5 -5 10 -15 10 -20 0 -6 -18 9 -41 33
-23 25 -38 50 -35 58 4 8 1 11 -5 7 -7 -4 -9 0 -5 14 4 11 2 23 -4 27 -5 3
-10 -2 -10 -12 0 -15 -2 -16 -10 -3 -5 9 -5 17 0 20 9 5 8 14 0 55 -3 14 -1
25 6 25 3 0 3 -4 -1 -9z m-103 -208 c99 -137 239 -251 402 -329 272 -129 603
-131 870 -5 169 78 314 193 406 321 25 33 48 60 51 60 11 0 65 -137 94 -235
42 -144 58 -265 58 -430 -1 -307 -66 -568 -218 -863 -56 -110 -65 -135 -65
-181 0 -96 54 -156 183 -203 32 -11 67 -32 77 -46 30 -38 26 -88 -10 -124
l-30 -30 -183 4 c-205 3 -224 9 -274 81 l-26 38 -6 347 -6 347 -37 78 c-65
136 -183 235 -323 271 -197 52 -416 -34 -526 -206 -72 -111 -73 -118 -79 -494
l-5 -341 -28 -42 c-46 -70 -83 -81 -274 -81 -177 0 -205 6 -229 51 -34 66 -7
107 93 149 128 53 166 93 179 192 6 39 1 54 -49 149 -165 314 -236 585 -237
894 0 155 12 261 44 387 27 104 95 288 106 288 5 0 24 -21 42 -47z m466 -57
c18 -8 40 -23 49 -32 16 -16 15 -16 -7 -9 l-25 8 25 -22 c14 -13 20 -20 14
-17 -7 3 -17 -1 -24 -9 -15 -18 1 -21 31 -4 18 9 19 8 13 -18 -4 -15 -9 -31
-13 -35 -10 -11 -82 3 -74 15 4 6 1 7 -6 2 -8 -4 -25 1 -42 14 -15 11 -32 21
-36 21 -11 1 -60 39 -50 40 4 0 19 -7 33 -16 13 -9 27 -14 31 -10 3 3 1 6 -7
6 -9 0 -10 3 -1 14 19 23 -9 38 -47 25 -28 -9 -35 -7 -66 17 -19 16 -33 30
-31 33 3 2 13 -3 23 -13 11 -9 25 -15 33 -13 8 2 11 2 7 0 -12 -7 -9 -23 3
-23 19 0 60 38 49 45 -7 5 -5 12 7 20 15 12 22 11 48 -5 17 -11 45 -26 63 -34z
m1634 -187 c97 -21 180 -93 214 -186 30 -84 28 -95 -152 -843 -99 -409 -95
-381 -60 -457 26 -56 56 -79 156 -122 99 -44 137 -112 92 -167 -31 -38 -56
-44 -200 -44 l-139 0 5 70 c9 125 -45 207 -167 255 -80 31 -111 51 -111 71 0
9 34 84 74 167 120 245 181 456 206 713 16 178 8 351 -26 511 -5 25 -3 32 12
36 31 8 41 7 96 -4z m-1116 -814 c94 -42 158 -116 191 -220 9 -28 13 -117 13
-292 l0 -251 -42 -25 c-98 -57 -163 -72 -303 -72 -140 0 -208 16 -303 72 l-43
25 3 266 c3 265 3 267 30 324 81 173 283 251 454 173z"/>
<path d="M1555 3812 c-67 -23 -108 -54 -145 -107 -43 -62 -49 -100 -20 -130
43 -46 93 -30 132 44 19 34 84 70 127 71 40 0 104 -37 131 -77 37 -54 48 -63
80 -63 38 0 74 44 66 82 -9 43 -53 105 -98 138 -80 58 -182 74 -273 42z"/>
<path d="M2382 3812 c-90 -33 -193 -152 -176 -205 17 -58 78 -76 114 -34 74
85 98 106 133 112 48 9 121 -17 145 -52 48 -68 64 -83 93 -83 37 0 69 32 69
68 0 58 -73 143 -158 186 -53 27 -157 30 -220 8z"/>
<path d="M1900 3023 c0 -21 20 -55 20 -35 0 9 34 12 138 11 75 0 132 -3 125
-6 -10 -3 -10 -7 -1 -17 19 -20 70 10 66 38 -3 20 -8 21 -175 24 -160 2 -173
1 -173 -15z"/>
<path d="M3663 3482 c-36 -4 -73 -42 -73 -74 0 -11 14 -33 30 -48 36 -34 72
-29 103 12 36 48 -2 117 -60 110z"/>
<path d="M570 1190 c-11 -11 -20 -33 -20 -49 0 -87 131 -95 138 -9 6 68 -71
105 -118 58z"/>
</g>
</svg>
