<?xml version="1.0" standalone="no"?>
<!DOCTYPE svg PUBLIC "-//W3C//DTD SVG 20010904//EN"
 "http://www.w3.org/TR/2001/REC-SVG-20010904/DTD/svg10.dtd">
<svg version="1.0" xmlns="http://www.w3.org/2000/svg"
 width="474.000000pt" height="316.000000pt" viewBox="0 0 474.000000 316.000000"
 preserveAspectRatio="xMidYMid meet">
<metadata>
Created by potrace 1.16, written by Peter Selinger 2001-2019
</metadata>
<g transform="translate(0.000000,316.000000) scale(0.100000,-0.100000)"
fill="#000000" stroke="none">
<path d="M1116 2834 c-14 -13 -16 -52 -16 -277 l1 -262 77 -80 c42 -44 214
-224 382 -400 167 -176 340 -356 382 -401 l78 -80 0 -485 c0 -530 1 -532 56
-537 26 -3 57 19 230 159 332 270 439 361 446 378 4 9 7 122 7 251 l1 235 86
95 c48 52 110 120 138 150 28 31 76 82 106 115 30 33 101 110 156 170 56 61
167 182 247 270 l146 160 1 262 c0 225 -2 264 -16 277 -14 14 -141 16 -1254
16 -1113 0 -1240 -2 -1254 -16z m2404 -296 l0 -191 -82 -91 c-102 -112 -320
-350 -587 -641 -112 -121 -206 -230 -211 -241 -5 -12 -9 -124 -9 -250 l0 -229
-79 -65 c-313 -258 -395 -325 -400 -323 -3 2 -6 199 -6 438 l-2 434 -74 78
c-41 43 -163 170 -271 283 -108 113 -282 295 -387 405 l-192 200 0 193 0 192
1150 0 1150 0 0 -192z"/>
</g>
</svg>
